  0
SECTION
  2
HEADER
  9
$ACADVER
  1
AC1018
  9
$ACADMAINTVER
 70
     0
  9
$DWGCODEPAGE
  3
ANSI_1252
  9
$INSBASE
 10
0.0
 20
0.0
 30
0.0
  9
$EXTMIN
 10
1.000000000000000E+20
 20
1.000000000000000E+20
 30
1.000000000000000E+20
  9
$EXTMAX
 10
-1.000000000000000E+20
 20
-1.000000000000000E+20
 30
-1.000000000000000E+20
  9
$LIMMIN
 10
0.0
 20
0.0
  9
$LIMMAX
 10
12.0
 20
9.0
  9
$ORTHOMODE
 70
     0
  9
$REGENMODE
 70
     1
  9
$FILLMODE
 70
     1
  9
$QTEXTMODE
 70
     0
  9
$MIRRTEXT
 70
     1
  9
$LTSCALE
 40
1.0
  9
$ATTMODE
 70
     1
  9
$TEXTSIZE
 40
0.2
  9
$TRACEWID
 40
0.05
  9
$TEXTSTYLE
  7
Standard
  9
$CLAYER
  8
0
  9
$CELTYPE
  6
ByLayer
  9
$CECOLOR
 62
   256
  9
$CELTSCALE
 40
1.0
  9
$DISPSILH
 70
     0
  9
$DIMSCALE
 40
1.0
  9
$DIMASZ
 40
0.18
  9
$DIMEXO
 40
0.0625
  9
$DIMDLI
 40
0.38
  9
$DIMRND
 40
0.0
  9
$DIMDLE
 40
0.0
  9
$DIMEXE
 40
0.18
  9
$DIMTP
 40
0.0
  9
$DIMTM
 40
0.0
  9
$DIMTXT
 40
0.18
  9
$DIMCEN
 40
0.09
  9
$DIMTSZ
 40
0.0
  9
$DIMTOL
 70
     0
  9
$DIMLIM
 70
     0
  9
$DIMTIH
 70
     1
  9
$DIMTOH
 70
     1
  9
$DIMSE1
 70
     0
  9
$DIMSE2
 70
     0
  9
$DIMTAD
 70
     0
  9
$DIMZIN
 70
     0
  9
$DIMBLK
  1

  9
$DIMASO
 70
     1
  9
$DIMSHO
 70
     1
  9
$DIMPOST
  1

  9
$DIMAPOST
  1

  9
$DIMALT
 70
     0
  9
$DIMALTD
 70
     2
  9
$DIMALTF
 40
25.4
  9
$DIMLFAC
 40
1.0
  9
$DIMTOFL
 70
     0
  9
$DIMTVP
 40
0.0
  9
$DIMTIX
 70
     0
  9
$DIMSOXD
 70
     0
  9
$DIMSAH
 70
     0
  9
$DIMBLK1
  1

  9
$DIMBLK2
  1

  9
$DIMSTYLE
  2
Standard
  9
$DIMCLRD
 70
     0
  9
$DIMCLRE
 70
     0
  9
$DIMCLRT
 70
     0
  9
$DIMTFAC
 40
1.0
  9
$DIMGAP
 40
0.09
  9
$DIMJUST
 70
     0
  9
$DIMSD1
 70
     0
  9
$DIMSD2
 70
     0
  9
$DIMTOLJ
 70
     1
  9
$DIMTZIN
 70
     0
  9
$DIMALTZ
 70
     0
  9
$DIMALTTZ
 70
     0
  9
$DIMUPT
 70
     0
  9
$DIMDEC
 70
     4
  9
$DIMTDEC
 70
     4
  9
$DIMALTU
 70
     2
  9
$DIMALTTD
 70
     2
  9
$DIMTXSTY
  7
Standard
  9
$DIMAUNIT
 70
     0
  9
$DIMADEC
 70
     0
  9
$DIMALTRND
 40
0.0
  9
$DIMAZIN
 70
     0
  9
$DIMDSEP
 70
    46
  9
$DIMATFIT
 70
     3
  9
$DIMFRAC
 70
     0
  9
$DIMLDRBLK
  1

  9
$DIMLUNIT
 70
     2
  9
$DIMLWD
 70
    -2
  9
$DIMLWE
 70
    -2
  9
$DIMTMOVE
 70
     0
  9
$LUNITS
 70
     2
  9
$LUPREC
 70
     4
  9
$SKETCHINC
 40
0.1
  9
$FILLETRAD
 40
0.5
  9
$AUNITS
 70
     0
  9
$AUPREC
 70
     0
  9
$MENU
  1
.
  9
$ELEVATION
 40
0.0
  9
$PELEVATION
 40
0.0
  9
$THICKNESS
 40
0.0
  9
$LIMCHECK
 70
     0
  9
$CHAMFERA
 40
0.5
  9
$CHAMFERB
 40
0.5
  9
$CHAMFERC
 40
1.0
  9
$CHAMFERD
 40
0.0
  9
$SKPOLY
 70
     0
  9
$TDCREATE
 40
2456879.47638934
  9
$TDUCREATE
 40
2456879.434722674
  9
$TDUPDATE
 40
2456879.476389352
  9
$TDUUPDATE
 40
2456879.434722685
  9
$TDINDWG
 40
0.0000000116
  9
$TDUSRTIMER
 40
0.0000000116
  9
$USRTIMER
 70
     1
  9
$ANGBASE
 50
0.0
  9
$ANGDIR
 70
     0
  9
$PDMODE
 70
     0
  9
$PDSIZE
 40
0.0
  9
$PLINEWID
 40
0.0
  9
$SPLFRAME
 70
     0
  9
$SPLINETYPE
 70
     6
  9
$SPLINESEGS
 70
     8
  9
$HANDSEED
  5
61
  9
$SURFTAB1
 70
     6
  9
$SURFTAB2
 70
     6
  9
$SURFTYPE
 70
     6
  9
$SURFU
 70
     6
  9
$SURFV
 70
     6
  9
$UCSBASE
  2

  9
$UCSNAME
  2

  9
$UCSORG
 10
0.0
 20
0.0
 30
0.0
  9
$UCSXDIR
 10
1.0
 20
0.0
 30
0.0
  9
$UCSYDIR
 10
0.0
 20
1.0
 30
0.0
  9
$UCSORTHOREF
  2

  9
$UCSORTHOVIEW
 70
     0
  9
$UCSORGTOP
 10
0.0
 20
0.0
 30
0.0
  9
$UCSORGBOTTOM
 10
0.0
 20
0.0
 30
0.0
  9
$UCSORGLEFT
 10
0.0
 20
0.0
 30
0.0
  9
$UCSORGRIGHT
 10
0.0
 20
0.0
 30
0.0
  9
$UCSORGFRONT
 10
0.0
 20
0.0
 30
0.0
  9
$UCSORGBACK
 10
0.0
 20
0.0
 30
0.0
  9
$PUCSBASE
  2

  9
$PUCSNAME
  2

  9
$PUCSORG
 10
0.0
 20
0.0
 30
0.0
  9
$PUCSXDIR
 10
1.0
 20
0.0
 30
0.0
  9
$PUCSYDIR
 10
0.0
 20
1.0
 30
0.0
  9
$PUCSORTHOREF
  2

  9
$PUCSORTHOVIEW
 70
     0
  9
$PUCSORGTOP
 10
0.0
 20
0.0
 30
0.0
  9
$PUCSORGBOTTOM
 10
0.0
 20
0.0
 30
0.0
  9
$PUCSORGLEFT
 10
0.0
 20
0.0
 30
0.0
  9
$PUCSORGRIGHT
 10
0.0
 20
0.0
 30
0.0
  9
$PUCSORGFRONT
 10
0.0
 20
0.0
 30
0.0
  9
$PUCSORGBACK
 10
0.0
 20
0.0
 30
0.0
  9
$USERI1
 70
     0
  9
$USERI2
 70
     0
  9
$USERI3
 70
     0
  9
$USERI4
 70
     0
  9
$USERI5
 70
     0
  9
$USERR1
 40
0.0
  9
$USERR2
 40
0.0
  9
$USERR3
 40
0.0
  9
$USERR4
 40
0.0
  9
$USERR5
 40
0.0
  9
$WORLDVIEW
 70
     1
  9
$SHADEDGE
 70
     3
  9
$SHADEDIF
 70
    70
  9
$TILEMODE
 70
     1
  9
$MAXACTVP
 70
    64
  9
$PINSBASE
 10
0.0
 20
0.0
 30
0.0
  9
$PLIMCHECK
 70
     0
  9
$PEXTMIN
 10
1.000000000000000E+20
 20
1.000000000000000E+20
 30
1.000000000000000E+20
  9
$PEXTMAX
 10
-1.000000000000000E+20
 20
-1.000000000000000E+20
 30
-1.000000000000000E+20
  9
$PLIMMIN
 10
0.0
 20
0.0
  9
$PLIMMAX
 10
12.0
 20
9.0
  9
$UNITMODE
 70
     0
  9
$VISRETAIN
 70
     1
  9
$PLINEGEN
 70
     0
  9
$PSLTSCALE
 70
     1
  9
$TREEDEPTH
 70
  3020
  9
$CMLSTYLE
  2
Standard
  9
$CMLJUST
 70
     0
  9
$CMLSCALE
 40
1.0
  9
$PROXYGRAPHICS
 70
     1
  9
$MEASUREMENT
 70
     0
  9
$CELWEIGHT
370
    -1
  9
$ENDCAPS
280
     0
  9
$JOINSTYLE
280
     0
  9
$LWDISPLAY
290
     1
  9
$INSUNITS
 70
     1
  9
$HYPERLINKBASE
  1

  9
$STYLESHEET
  1

  9
$XEDIT
290
     1
  9
$CEPSNTYPE
380
     0
  9
$PSTYLEMODE
290
     1
  9
$FINGERPRINTGUID
  2
{F12BD6F5-789B-42E1-ACC8-89467D337024}
  9
$VERSIONGUID
  2
{FAEB1C32-E019-11D5-929B-00C0DF256EC4}
  9
$EXTNAMES
290
     1
  9
$PSVPSCALE
 40
0.0
  9
$OLESTARTUP
290
     0
  9
$SORTENTS
280
   127
  9
$INDEXCTL
280
     0
  9
$HIDETEXT
280
     1
  9
$XCLIPFRAME
290
     0
  9
$HALOGAP
280
     0
  9
$OBSCOLOR
 70
   257
  9
$OBSLTYPE
280
     0
  9
$INTERSECTIONDISPLAY
280
     0
  9
$INTERSECTIONCOLOR
 70
   257
  9
$DIMASSOC
280
     2
  9
$PROJECTNAME
  1

  0
ENDSEC
  0
SECTION
  2
CLASSES
  0
CLASS
  1
ACDBDICTIONARYWDFLT
  2
AcDbDictionaryWithDefault
  3
ObjectDBX Classes
 90
        0
 91
        3
280
     0
281
     0
  0
CLASS
  1
VISUALSTYLE
  2
AcDbVisualStyle
  3
ObjectDBX Classes
 90
     4095
 91
        3
280
     0
281
     0
  0
ENDSEC
  0
SECTION
  2
TABLES
  0
TABLE
  2
VPORT
  5
8
330
0
100
AcDbSymbolTable
 70
     1
  0
VPORT
  5
29
330
8
100
AcDbSymbolTableRecord
100
AcDbViewportTableRecord
  2
*Active
 70
     0
 10
0.0
 20
0.0
 11
1.0
 21
1.0
 12
0.0
 22
0.0
 13
0.0
 23
0.0
 14
0.5
 24
0.5
 15
0.5
 25
0.5
 16
0.0
 26
0.0
 36
1.0
 17
325.834716796875
 27
423.91064453125
 37
0.0
 40
329.4404296875
 41
1.162436600888699
 42
50.0
 43
0.0
 44
0.0
 50
0.0
 51
0.0
 71
     0
 72
   100
 73
     1
 74
     3
 75
     0
 76
     0
 77
     0
 78
     0
281
     0
 65
     1
110
0.0
120
0.0
130
0.0
111
1.0
121
0.0
131
0.0
112
0.0
122
1.0
132
0.0
 79
     0
146
0.0
  0
ENDTAB
  0
TABLE
  2
LTYPE
  5
5
330
0
100
AcDbSymbolTable
 70
     1
  0
LTYPE
  5
14
330
5
100
AcDbSymbolTableRecord
100
AcDbLinetypeTableRecord
  2
ByBlock
 70
     0
  3

 72
    65
 73
     0
 40
0.0
  0
LTYPE
  5
15
330
5
100
AcDbSymbolTableRecord
100
AcDbLinetypeTableRecord
  2
ByLayer
 70
     0
  3

 72
    65
 73
     0
 40
0.0
  0
LTYPE
  5
16
330
5
100
AcDbSymbolTableRecord
100
AcDbLinetypeTableRecord
  2
Continuous
 70
     0
  3
Solid line
 72
    65
 73
     0
 40
0.0
  0
ENDTAB
  0
TABLE
  2
LAYER
  5
2
330
0
100
AcDbSymbolTable
 70
     2
  0
LAYER
  5
10
330
2
100
AcDbSymbolTableRecord
100
AcDbLayerTableRecord
  2
0
 70
     0
 62
     7
  6
Continuous
370
    -3
390
F
  0
LAYER
  5
3B
330
2
100
AcDbSymbolTableRecord
100
AcDbLayerTableRecord
  2
Layer 1
 70
     0
 62
     7
  6
Continuous
370
    -3
390
F
  0
ENDTAB
  0
TABLE
  2
STYLE
  5
3
330
0
100
AcDbSymbolTable
 70
     1
  0
STYLE
  5
11
330
3
100
AcDbSymbolTableRecord
100
AcDbTextStyleTableRecord
  2
Standard
 70
     0
 40
0.0
 41
1.0
 50
0.0
 71
     0
 42
0.2
  3
txt
  4

  0
ENDTAB
  0
TABLE
  2
VIEW
  5
6
330
0
100
AcDbSymbolTable
 70
     0
  0
ENDTAB
  0
TABLE
  2
UCS
  5
7
330
0
100
AcDbSymbolTable
 70
     0
  0
ENDTAB
  0
TABLE
  2
APPID
  5
9
330
0
100
AcDbSymbolTable
 70
     1
  0
APPID
  5
12
330
9
100
AcDbSymbolTableRecord
100
AcDbRegAppTableRecord
  2
ACAD
 70
     0
  0
ENDTAB
  0
TABLE
  2
DIMSTYLE
  5
A
330
0
100
AcDbSymbolTable
 70
     1
100
AcDbDimStyleTable
  0
DIMSTYLE
105
27
330
A
100
AcDbSymbolTableRecord
100
AcDbDimStyleTableRecord
  2
Standard
 70
     0
340
11
  0
ENDTAB
  0
TABLE
  2
BLOCK_RECORD
  5
1
330
0
100
AcDbSymbolTable
 70
     3
  0
BLOCK_RECORD
  5
1F
330
1
100
AcDbSymbolTableRecord
100
AcDbBlockTableRecord
  2
*Model_Space
340
22
  0
BLOCK_RECORD
  5
1B
330
1
100
AcDbSymbolTableRecord
100
AcDbBlockTableRecord
  2
*Paper_Space
340
1E
  0
BLOCK_RECORD
  5
23
330
1
100
AcDbSymbolTableRecord
100
AcDbBlockTableRecord
  2
*Paper_Space0
340
26
  0
BLOCK_RECORD
  5
3C
330
1
100
AcDbSymbolTableRecord
100
AcDbBlockTableRecord
  2
block 2
340
0
102
{BLKREFS
331
3D
102
}
  0
BLOCK_RECORD
  5
4A
330
1
100
AcDbSymbolTableRecord
100
AcDbBlockTableRecord
  2
block 3
340
0
102
{BLKREFS
331
4B
102
}
  0
ENDTAB
  0
ENDSEC
  0
SECTION
  2
BLOCKS
  0
BLOCK
  5
20
330
1F
100
AcDbEntity
  8
0
100
AcDbBlockBegin
  2
*Model_Space
 70
     0
 71
     0
 10
0.0
 20
0.0
 30
0.0
  3
*Model_Space
  1

  0
ENDBLK
  5
21
330
1F
100
AcDbEntity
  8
0
100
AcDbBlockEnd
  0
BLOCK
  5
1C
330
1B
100
AcDbEntity
 67
     1
  8
0
100
AcDbBlockBegin
  2
*Paper_Space
 70
     0
 71
     0
 10
0.0
 20
0.0
 30
0.0
  3
*Paper_Space
  1

  0
ENDBLK
  5
1D
330
1B
100
AcDbEntity
 67
     1
  8
0
100
AcDbBlockEnd
  0
BLOCK
  5
24
330
23
100
AcDbEntity
  8
0
100
AcDbBlockBegin
  2
*Paper_Space0
 70
     0
 71
     0
 10
0.0
 20
0.0
 30
0.0
  3
*Paper_Space0
  1

  0
ENDBLK
  5
25
330
23
100
AcDbEntity
  8
0
100
AcDbBlockEnd
  0
BLOCK
  5
3E
330
3C
100
AcDbEntity
  8
0
100
AcDbBlockBegin
  2
block 2
 70
     0
 71
     0
 10
0.0
 20
0.0
 30
0.0
  3
block 2
  1

  0
SPLINE
  5
40
330
3C
100
AcDbEntity
  8
Layer 1
370
     0
100
AcDbSpline
210
0.0
220
0.0
230
1.0
 70
    11
 71
     3
 72
    62
 73
    58
 74
     0
 42
0.0000000001
 43
0.0000000001
 40
0.0
 40
0.0
 40
0.0
 40
0.0
 40
1.0
 40
1.0
 40
1.0
 40
2.0
 40
2.0
 40
2.0
 40
3.0
 40
3.0
 40
3.0
 40
4.0
 40
4.0
 40
4.0
 40
5.0
 40
5.0
 40
5.0
 40
6.0
 40
6.0
 40
6.0
 40
7.0
 40
7.0
 40
7.0
 40
8.0
 40
8.0
 40
8.0
 40
9.0
 40
9.0
 40
9.0
 40
10.0
 40
10.0
 40
10.0
 40
11.0
 40
11.0
 40
11.0
 40
12.0
 40
12.0
 40
12.0
 40
13.0
 40
13.0
 40
13.0
 40
14.0
 40
14.0
 40
14.0
 40
15.0
 40
15.0
 40
15.0
 40
16.0
 40
16.0
 40
16.0
 40
17.0
 40
17.0
 40
17.0
 40
18.0
 40
18.0
 40
18.0
 40
19.0
 40
19.0
 40
19.0
 40
19.0
 10
425.8046875
 20
314.13671875
 30
0.0
 10
418.080078125
 20
305.943359375
 30
0.0
 10
410.353515625
 20
297.75390625
 30
0.0
 10
402.6328125
 20
289.55859375
 30
0.0
 10
399.0625
 20
285.767578125
 30
0.0
 10
397.3125
 20
285.748046875
 30
0.0
 10
393.814453125
 20
289.46484375
 30
0.0
 10
386.775390625
 20
296.94921875
 30
0.0
 10
379.720703125
 20
304.41796875
 30
0.0
 10
372.697265625
 20
311.91796875
 30
0.0
 10
371.96484375
 20
312.701171875
 30
0.0
 10
371.40234375
 20
313.64453125
 30
0.0
 10
370.759765625
 20
314.513671875
 30
0.0
 10
370.421875
 20
314.3125
 30
0.0
 10
370.083984375
 20
314.109375
 30
0.0
 10
369.74609375
 20
313.908203125
 30
0.0
 10
369.74609375
 20
295.810546875
 30
0.0
 10
369.74609375
 20
277.71484375
 30
0.0
 10
369.74609375
 20
259.46484375
 30
0.0
 10
361.35546875
 20
259.46484375
 30
0.0
 10
353.40234375
 20
259.46484375
 30
0.0
 10
345.291015625
 20
259.46484375
 30
0.0
 10
345.291015625
 20
289.109375
 30
0.0
 10
345.291015625
 20
318.533203125
 30
0.0
 10
345.291015625
 20
348.4140625
 30
0.0
 10
352.091796875
 20
348.4140625
 30
0.0
 10
358.8203125
 20
348.5
 30
0.0
 10
365.54296875
 20
348.318359375
 30
0.0
 10
366.529296875
 20
348.29296875
 30
0.0
 10
367.60546875
 20
347.119140625
 30
0.0
 10
368.431640625
 20
346.271484375
 30
0.0
 10
378.361328125
 20
336.09375
 30
0.0
 10
388.251953125
 20
325.876953125
 30
0.0
 10
399.16015625
 20
314.6328125
 30
0.0
 10
399.845703125
 20
315.861328125
 30
0.0
 10
400.259765625
 20
317.130859375
 30
0.0
 10
401.087890625
 20
318.0078125
 30
0.0
 10
409.998046875
 20
327.453125
 30
0.0
 10
419.009765625
 20
336.80078125
 30
0.0
 10
427.892578125
 20
346.271484375
 30
0.0
 10
429.419921875
 20
347.900390625
 30
0.0
 10
430.974609375
 20
348.53125
 30
0.0
 10
433.17578125
 20
348.48046875
 30
0.0
 10
439.037109375
 20
348.34765625
 30
0.0
 10
444.90234375
 20
348.435546875
 30
0.0
 10
451.025390625
 20
348.435546875
 30
0.0
 10
451.025390625
 20
318.734375
 30
0.0
 10
451.025390625
 20
289.232421875
 30
0.0
 10
451.025390625
 20
259.486328125
 30
0.0
 10
442.958984375
 20
259.486328125
 30
0.0
 10
435.005859375
 20
259.486328125
 30
0.0
 10
426.673828125
 20
259.486328125
 30
0.0
 10
426.673828125
 20
277.646484375
 30
0.0
 10
426.673828125
 20
295.751953125
 30
0.0
 10
426.673828125
 20
313.857421875
 30
0.0
 10
426.384765625
 20
313.94921875
 30
0.0
 10
426.095703125
 20
314.04296875
 30
0.0
 10
425.8046875
 20
314.13671875
 30
0.0
  0
HATCH
  5
41
330
3C
100
AcDbEntity
  8
Layer 1
 62
     7
420
 16777215
100
AcDbHatch
 10
0.0
 20
0.0
 30
0.0
210
0.0
220
0.0
230
1.0
  2
SOLID
 70
     1
 71
     0
 91
        1
 92
        1
 93
        1
 72
     4
 94
        3
 73
     0
 74
     1
 95
       62
 96
       58
 40
0.0
 40
0.0
 40
0.0
 40
0.0
 40
1.0
 40
1.0
 40
1.0
 40
2.0
 40
2.0
 40
2.0
 40
3.0
 40
3.0
 40
3.0
 40
4.0
 40
4.0
 40
4.0
 40
5.0
 40
5.0
 40
5.0
 40
6.0
 40
6.0
 40
6.0
 40
7.0
 40
7.0
 40
7.0
 40
8.0
 40
8.0
 40
8.0
 40
9.0
 40
9.0
 40
9.0
 40
10.0
 40
10.0
 40
10.0
 40
11.0
 40
11.0
 40
11.0
 40
12.0
 40
12.0
 40
12.0
 40
13.0
 40
13.0
 40
13.0
 40
14.0
 40
14.0
 40
14.0
 40
15.0
 40
15.0
 40
15.0
 40
16.0
 40
16.0
 40
16.0
 40
17.0
 40
17.0
 40
17.0
 40
18.0
 40
18.0
 40
18.0
 40
19.0
 40
19.0
 40
19.0
 40
19.0
 10
425.8046875
 20
314.13671875
 10
418.080078125
 20
305.943359375
 10
410.353515625
 20
297.75390625
 10
402.6328125
 20
289.55859375
 10
399.0625
 20
285.767578125
 10
397.3125
 20
285.748046875
 10
393.814453125
 20
289.46484375
 10
386.775390625
 20
296.94921875
 10
379.720703125
 20
304.41796875
 10
372.697265625
 20
311.91796875
 10
371.96484375
 20
312.701171875
 10
371.40234375
 20
313.64453125
 10
370.759765625
 20
314.513671875
 10
370.421875
 20
314.3125
 10
370.083984375
 20
314.109375
 10
369.74609375
 20
313.908203125
 10
369.74609375
 20
295.810546875
 10
369.74609375
 20
277.71484375
 10
369.74609375
 20
259.46484375
 10
361.35546875
 20
259.46484375
 10
353.40234375
 20
259.46484375
 10
345.291015625
 20
259.46484375
 10
345.291015625
 20
289.109375
 10
345.291015625
 20
318.533203125
 10
345.291015625
 20
348.4140625
 10
352.091796875
 20
348.4140625
 10
358.8203125
 20
348.5
 10
365.54296875
 20
348.318359375
 10
366.529296875
 20
348.29296875
 10
367.60546875
 20
347.119140625
 10
368.431640625
 20
346.271484375
 10
378.361328125
 20
336.09375
 10
388.251953125
 20
325.876953125
 10
399.16015625
 20
314.6328125
 10
399.845703125
 20
315.861328125
 10
400.259765625
 20
317.130859375
 10
401.087890625
 20
318.0078125
 10
409.998046875
 20
327.453125
 10
419.009765625
 20
336.80078125
 10
427.892578125
 20
346.271484375
 10
429.419921875
 20
347.900390625
 10
430.974609375
 20
348.53125
 10
433.17578125
 20
348.48046875
 10
439.037109375
 20
348.34765625
 10
444.90234375
 20
348.435546875
 10
451.025390625
 20
348.435546875
 10
451.025390625
 20
318.734375
 10
451.025390625
 20
289.232421875
 10
451.025390625
 20
259.486328125
 10
442.958984375
 20
259.486328125
 10
435.005859375
 20
259.486328125
 10
426.673828125
 20
259.486328125
 10
426.673828125
 20
277.646484375
 10
426.673828125
 20
295.751953125
 10
426.673828125
 20
313.857421875
 10
426.384765625
 20
313.94921875
 10
426.095703125
 20
314.04296875
 10
425.8046875
 20
314.13671875
 97
        0
 75
     0
 76
     1
 98
        0
  0
SPLINE
  5
42
330
3C
100
AcDbEntity
  8
Layer 1
370
     0
100
AcDbSpline
210
0.0
220
0.0
230
1.0
 70
    11
 71
     3
 72
    56
 73
    52
 74
     0
 42
0.0000000001
 43
0.0000000001
 40
0.0
 40
0.0
 40
0.0
 40
0.0
 40
1.0
 40
1.0
 40
1.0
 40
2.0
 40
2.0
 40
2.0
 40
3.0
 40
3.0
 40
3.0
 40
4.0
 40
4.0
 40
4.0
 40
5.0
 40
5.0
 40
5.0
 40
6.0
 40
6.0
 40
6.0
 40
7.0
 40
7.0
 40
7.0
 40
8.0
 40
8.0
 40
8.0
 40
9.0
 40
9.0
 40
9.0
 40
10.0
 40
10.0
 40
10.0
 40
11.0
 40
11.0
 40
11.0
 40
12.0
 40
12.0
 40
12.0
 40
13.0
 40
13.0
 40
13.0
 40
14.0
 40
14.0
 40
14.0
 40
15.0
 40
15.0
 40
15.0
 40
16.0
 40
16.0
 40
16.0
 40
17.0
 40
17.0
 40
17.0
 40
17.0
 10
251.91015625
 20
347.822265625
 30
0.0
 10
269.12451171875
 20
347.822265625
 30
0.0
 10
286.0546875
 20
348.2734375
 30
0.0
 10
302.94287109375
 20
347.630859375
 30
0.0
 10
311.419921875
 20
347.30859375
 30
0.0
 10
318.677734375
 20
342.9453125
 30
0.0
 10
323.73046875
 20
335.771484375
 30
0.0
 10
331.310546875
 20
325.009765625
 30
0.0
 10
328.599609375
 20
311.31640625
 30
0.0
 10
317.546875
 20
304.19140625
 30
0.0
 10
315.771484375
 20
303.046875
 30
0.0
 10
313.884765625
 20
302.08203125
 30
0.0
 10
311.7421875
 20
300.857421875
 30
0.0
 10
318.19140625
 20
297.23046875
 30
0.0
 10
321.6376953125
 20
291.43359375
 30
0.0
 10
324.78125
 20
285.4296875
 30
0.0
 10
329.2119140625
 20
276.97265625
 30
0.0
 10
333.533203125
 20
268.45703125
 30
0.0
 10
338.09375
 20
259.591796875
 30
0.0
 10
336.78125
 20
259.439453125
 30
0.0
 10
335.9375
 20
259.259765625
 30
0.0
 10
335.09375
 20
259.2578125
 30
0.0
 10
328.0947265625
 20
259.234375
 30
0.0
 10
321.09375
 20
259.330078125
 30
0.0
 10
314.0986328125
 20
259.19140625
 30
0.0
 10
311.9765625
 20
259.150390625
 30
0.0
 10
310.8125
 20
259.880859375
 30
0.0
 10
309.921875
 20
261.736328125
 30
0.0
 10
307.48046875
 20
266.814453125
 30
0.0
 10
304.9248046875
 20
271.837890625
 30
0.0
 10
302.373046875
 20
276.86328125
 30
0.0
 10
300.9951171875
 20
279.576171875
 30
0.0
 10
299.55712890625
 20
282.259765625
 30
0.0
 10
298.1025390625
 20
284.931640625
 30
0.0
 10
293.5263671875
 20
293.341796875
 30
0.0
 10
286.59375
 20
296.9921875
 30
0.0
 10
276.62353515625
 20
295.15234375
 30
0.0
 10
276.56201171875
 20
294.1484375
 30
0.0
 10
276.427734375
 20
292.966796875
 30
0.0
 10
276.42529296875
 20
291.78515625
 30
0.0
 10
276.408203125
 20
281.96484375
 30
0.0
 10
276.3564453125
 20
272.142578125
 30
0.0
 10
276.45947265625
 20
262.322265625
 30
0.0
 10
276.4833984375
 20
260.021484375
 30
0.0
 10
275.8681640625
 20
259.146484375
 30
0.0
 10
273.43408203125
 20
259.1953125
 30
0.0
 10
266.345703125
 20
259.333984375
 30
0.0
 10
259.25244140625
 20
259.244140625
 30
0.0
 10
251.91015625
 20
259.244140625
 30
0.0
 10
251.91015625
 20
289.048828125
 30
0.0
 10
251.91015625
 20
318.537109375
 30
0.0
 10
251.91015625
 20
347.822265625
 30
0.0
  0
SPLINE
  5
43
330
3C
100
AcDbEntity
  8
Layer 1
370
     0
100
AcDbSpline
210
0.0
220
0.0
230
1.0
 70
    11
 71
     3
 72
    20
 73
    16
 74
     0
 42
0.0000000001
 43
0.0000000001
 40
0.0
 40
0.0
 40
0.0
 40
0.0
 40
1.0
 40
1.0
 40
1.0
 40
2.0
 40
2.0
 40
2.0
 40
3.0
 40
3.0
 40
3.0
 40
4.0
 40
4.0
 40
4.0
 40
5.0
 40
5.0
 40
5.0
 40
5.0
 10
276.66259765625
 20
332.384765625
 30
0.0
 10
276.66259765625
 20
325.197265625
 30
0.0
 10
276.66259765625
 20
318.65234375
 30
0.0
 10
276.66259765625
 20
311.501953125
 30
0.0
 10
283.06884765625
 20
311.87890625
 30
0.0
 10
289.26806640625
 20
311.8125
 30
0.0
 10
295.318359375
 20
312.73046875
 30
0.0
 10
300.3056640625
 20
313.486328125
 30
0.0
 10
302.74072265625
 20
317.291015625
 30
0.0
 10
302.671875
 20
322.19921875
 30
0.0
 10
302.60400390625
 20
327.056640625
 30
0.0
 10
299.92724609375
 20
330.70703125
 30
0.0
 10
294.9208984375
 20
331.333984375
 30
0.0
 10
288.95361328125
 20
332.08203125
 30
0.0
 10
282.8896484375
 20
332.0625
 30
0.0
 10
276.66259765625
 20
332.384765625
 30
0.0
  0
HATCH
  5
44
330
3C
100
AcDbEntity
  8
Layer 1
 62
     7
420
 16777215
100
AcDbHatch
 10
0.0
 20
0.0
 30
0.0
210
0.0
220
0.0
230
1.0
  2
SOLID
 70
     1
 71
     0
 91
        2
 92
        1
 93
        1
 72
     4
 94
        3
 73
     0
 74
     1
 95
       56
 96
       52
 40
0.0
 40
0.0
 40
0.0
 40
0.0
 40
1.0
 40
1.0
 40
1.0
 40
2.0
 40
2.0
 40
2.0
 40
3.0
 40
3.0
 40
3.0
 40
4.0
 40
4.0
 40
4.0
 40
5.0
 40
5.0
 40
5.0
 40
6.0
 40
6.0
 40
6.0
 40
7.0
 40
7.0
 40
7.0
 40
8.0
 40
8.0
 40
8.0
 40
9.0
 40
9.0
 40
9.0
 40
10.0
 40
10.0
 40
10.0
 40
11.0
 40
11.0
 40
11.0
 40
12.0
 40
12.0
 40
12.0
 40
13.0
 40
13.0
 40
13.0
 40
14.0
 40
14.0
 40
14.0
 40
15.0
 40
15.0
 40
15.0
 40
16.0
 40
16.0
 40
16.0
 40
17.0
 40
17.0
 40
17.0
 40
17.0
 10
251.91015625
 20
347.822265625
 10
269.12451171875
 20
347.822265625
 10
286.0546875
 20
348.2734375
 10
302.94287109375
 20
347.630859375
 10
311.419921875
 20
347.30859375
 10
318.677734375
 20
342.9453125
 10
323.73046875
 20
335.771484375
 10
331.310546875
 20
325.009765625
 10
328.599609375
 20
311.31640625
 10
317.546875
 20
304.19140625
 10
315.771484375
 20
303.046875
 10
313.884765625
 20
302.08203125
 10
311.7421875
 20
300.857421875
 10
318.19140625
 20
297.23046875
 10
321.6376953125
 20
291.43359375
 10
324.78125
 20
285.4296875
 10
329.2119140625
 20
276.97265625
 10
333.533203125
 20
268.45703125
 10
338.09375
 20
259.591796875
 10
336.78125
 20
259.439453125
 10
335.9375
 20
259.259765625
 10
335.09375
 20
259.2578125
 10
328.0947265625
 20
259.234375
 10
321.09375
 20
259.330078125
 10
314.0986328125
 20
259.19140625
 10
311.9765625
 20
259.150390625
 10
310.8125
 20
259.880859375
 10
309.921875
 20
261.736328125
 10
307.48046875
 20
266.814453125
 10
304.9248046875
 20
271.837890625
 10
302.373046875
 20
276.86328125
 10
300.9951171875
 20
279.576171875
 10
299.55712890625
 20
282.259765625
 10
298.1025390625
 20
284.931640625
 10
293.5263671875
 20
293.341796875
 10
286.59375
 20
296.9921875
 10
276.62353515625
 20
295.15234375
 10
276.56201171875
 20
294.1484375
 10
276.427734375
 20
292.966796875
 10
276.42529296875
 20
291.78515625
 10
276.408203125
 20
281.96484375
 10
276.3564453125
 20
272.142578125
 10
276.45947265625
 20
262.322265625
 10
276.4833984375
 20
260.021484375
 10
275.8681640625
 20
259.146484375
 10
273.43408203125
 20
259.1953125
 10
266.345703125
 20
259.333984375
 10
259.25244140625
 20
259.244140625
 10
251.91015625
 20
259.244140625
 10
251.91015625
 20
289.048828125
 10
251.91015625
 20
318.537109375
 10
251.91015625
 20
347.822265625
 97
        0
 92
        1
 93
        1
 72
     4
 94
        3
 73
     0
 74
     1
 95
       20
 96
       16
 40
0.0
 40
0.0
 40
0.0
 40
0.0
 40
1.0
 40
1.0
 40
1.0
 40
2.0
 40
2.0
 40
2.0
 40
3.0
 40
3.0
 40
3.0
 40
4.0
 40
4.0
 40
4.0
 40
5.0
 40
5.0
 40
5.0
 40
5.0
 10
276.66259765625
 20
332.384765625
 10
276.66259765625
 20
325.197265625
 10
276.66259765625
 20
318.65234375
 10
276.66259765625
 20
311.501953125
 10
283.06884765625
 20
311.87890625
 10
289.26806640625
 20
311.8125
 10
295.318359375
 20
312.73046875
 10
300.3056640625
 20
313.486328125
 10
302.74072265625
 20
317.291015625
 10
302.671875
 20
322.19921875
 10
302.60400390625
 20
327.056640625
 10
299.92724609375
 20
330.70703125
 10
294.9208984375
 20
331.333984375
 10
288.95361328125
 20
332.08203125
 10
282.8896484375
 20
332.0625
 10
276.66259765625
 20
332.384765625
 97
        0
 75
     0
 76
     1
 98
        0
  0
SPLINE
  5
45
330
3C
100
AcDbEntity
  8
Layer 1
370
     0
100
AcDbSpline
210
0.0
220
0.0
230
1.0
 70
    11
 71
     3
 72
    53
 73
    49
 74
     0
 42
0.0000000001
 43
0.0000000001
 40
0.0
 40
0.0
 40
0.0
 40
0.0
 40
1.0
 40
1.0
 40
1.0
 40
2.0
 40
2.0
 40
2.0
 40
3.0
 40
3.0
 40
3.0
 40
4.0
 40
4.0
 40
4.0
 40
5.0
 40
5.0
 40
5.0
 40
6.0
 40
6.0
 40
6.0
 40
7.0
 40
7.0
 40
7.0
 40
8.0
 40
8.0
 40
8.0
 40
9.0
 40
9.0
 40
9.0
 40
10.0
 40
10.0
 40
10.0
 40
11.0
 40
11.0
 40
11.0
 40
12.0
 40
12.0
 40
12.0
 40
13.0
 40
13.0
 40
13.0
 40
14.0
 40
14.0
 40
14.0
 40
15.0
 40
15.0
 40
15.0
 40
16.0
 40
16.0
 40
16.0
 40
16.0
 10
245.68359375
 20
259.267578125
 30
0.0
 10
237.0966796875
 20
259.267578125
 30
0.0
 10
228.90625
 20
259.208984375
 30
0.0
 10
220.72021484375
 20
259.3671875
 30
0.0
 10
219.9794921875
 20
259.380859375
 30
0.0
 10
219.01318359375
 20
260.658203125
 30
0.0
 10
218.58251953125
 20
261.556640625
 30
0.0
 10
216.58447265625
 20
265.72265625
 30
0.0
 10
214.63427734375
 20
269.91796875
 30
0.0
 10
212.8818359375
 20
274.189453125
 30
0.0
 10
212.0185546875
 20
276.296875
 30
0.0
 10
210.79248046875
 20
276.935546875
 30
0.0
 10
208.54296875
 20
276.916015625
 30
0.0
 10
195.90234375
 20
276.80078125
 30
0.0
 10
183.259765625
 20
276.80859375
 30
0.0
 10
170.61865234375
 20
276.90625
 30
0.0
 10
168.28466796875
 20
276.92578125
 30
0.0
 10
166.962890625
 20
276.36328125
 30
0.0
 10
166.11181640625
 20
273.99609375
 30
0.0
 10
164.58984375
 20
269.76171875
 30
0.0
 10
162.73583984375
 20
265.638671875
 30
0.0
 10
160.84423828125
 20
261.55078125
 30
0.0
 10
160.41064453125
 20
260.61328125
 30
0.0
 10
159.2734375
 20
259.369140625
 30
0.0
 10
158.4365234375
 20
259.3515625
 30
0.0
 10
150.5654296875
 20
259.185546875
 30
0.0
 10
142.68896484375
 20
259.251953125
 30
0.0
 10
134.35791015625
 20
259.251953125
 30
0.0
 10
134.939453125
 20
260.759765625
 30
0.0
 10
135.3203125
 20
261.884765625
 30
0.0
 10
135.7998046875
 20
262.96484375
 30
0.0
 10
147.99462890625
 20
290.470703125
 30
0.0
 10
160.2216796875
 20
317.962890625
 30
0.0
 10
172.35986328125
 20
345.4921875
 30
0.0
 10
173.2919921875
 20
347.60546875
 30
0.0
 10
174.30712890625
 20
348.568359375
 30
0.0
 10
176.791015625
 20
348.505859375
 30
0.0
 10
184.46142578125
 20
348.3125
 30
0.0
 10
192.140625
 20
348.38671875
 30
0.0
 10
199.814453125
 20
348.470703125
 30
0.0
 10
201.5947265625
 20
348.490234375
 30
0.0
 10
202.6328125
 20
348.0546875
 30
0.0
 10
203.470703125
 20
346.328125
 30
0.0
 10
217.21484375
 20
318.046875
 30
0.0
 10
231.0361328125
 20
289.802734375
 30
0.0
 10
244.8310546875
 20
261.546875
 30
0.0
 10
245.1083984375
 20
260.978515625
 30
0.0
 10
245.279296875
 20
260.359375
 30
0.0
 10
245.68359375
 20
259.267578125
 30
0.0
  0
SPLINE
  5
46
330
3C
100
AcDbEntity
  8
Layer 1
370
     0
100
AcDbSpline
210
0.0
220
0.0
230
1.0
 70
    11
 71
     3
 72
    14
 73
    10
 74
     0
 42
0.0000000001
 43
0.0000000001
 40
0.0
 40
0.0
 40
0.0
 40
0.0
 40
1.0
 40
1.0
 40
1.0
 40
2.0
 40
2.0
 40
2.0
 40
3.0
 40
3.0
 40
3.0
 40
3.0
 10
188.06640625
 20
327.08984375
 30
0.0
 10
183.16845703125
 20
315.240234375
 30
0.0
 10
178.5556640625
 20
304.08203125
 30
0.0
 10
173.81494140625
 20
292.61328125
 30
0.0
 10
184.07470703125
 20
292.61328125
 30
0.0
 10
193.78125
 20
292.61328125
 30
0.0
 10
204.01513671875
 20
292.61328125
 30
0.0
 10
198.70703125
 20
304.087890625
 30
0.0
 10
193.57666015625
 20
315.177734375
 30
0.0
 10
188.06640625
 20
327.08984375
 30
0.0
  0
HATCH
  5
47
330
3C
100
AcDbEntity
  8
Layer 1
 62
     7
420
 16777215
100
AcDbHatch
 10
0.0
 20
0.0
 30
0.0
210
0.0
220
0.0
230
1.0
  2
SOLID
 70
     1
 71
     0
 91
        2
 92
        1
 93
        1
 72
     4
 94
        3
 73
     0
 74
     1
 95
       53
 96
       49
 40
0.0
 40
0.0
 40
0.0
 40
0.0
 40
1.0
 40
1.0
 40
1.0
 40
2.0
 40
2.0
 40
2.0
 40
3.0
 40
3.0
 40
3.0
 40
4.0
 40
4.0
 40
4.0
 40
5.0
 40
5.0
 40
5.0
 40
6.0
 40
6.0
 40
6.0
 40
7.0
 40
7.0
 40
7.0
 40
8.0
 40
8.0
 40
8.0
 40
9.0
 40
9.0
 40
9.0
 40
10.0
 40
10.0
 40
10.0
 40
11.0
 40
11.0
 40
11.0
 40
12.0
 40
12.0
 40
12.0
 40
13.0
 40
13.0
 40
13.0
 40
14.0
 40
14.0
 40
14.0
 40
15.0
 40
15.0
 40
15.0
 40
16.0
 40
16.0
 40
16.0
 40
16.0
 10
245.68359375
 20
259.267578125
 10
237.0966796875
 20
259.267578125
 10
228.90625
 20
259.208984375
 10
220.72021484375
 20
259.3671875
 10
219.9794921875
 20
259.380859375
 10
219.01318359375
 20
260.658203125
 10
218.58251953125
 20
261.556640625
 10
216.58447265625
 20
265.72265625
 10
214.63427734375
 20
269.91796875
 10
212.8818359375
 20
274.189453125
 10
212.0185546875
 20
276.296875
 10
210.79248046875
 20
276.935546875
 10
208.54296875
 20
276.916015625
 10
195.90234375
 20
276.80078125
 10
183.259765625
 20
276.80859375
 10
170.61865234375
 20
276.90625
 10
168.28466796875
 20
276.92578125
 10
166.962890625
 20
276.36328125
 10
166.11181640625
 20
273.99609375
 10
164.58984375
 20
269.76171875
 10
162.73583984375
 20
265.638671875
 10
160.84423828125
 20
261.55078125
 10
160.41064453125
 20
260.61328125
 10
159.2734375
 20
259.369140625
 10
158.4365234375
 20
259.3515625
 10
150.5654296875
 20
259.185546875
 10
142.68896484375
 20
259.251953125
 10
134.35791015625
 20
259.251953125
 10
134.939453125
 20
260.759765625
 10
135.3203125
 20
261.884765625
 10
135.7998046875
 20
262.96484375
 10
147.99462890625
 20
290.470703125
 10
160.2216796875
 20
317.962890625
 10
172.35986328125
 20
345.4921875
 10
173.2919921875
 20
347.60546875
 10
174.30712890625
 20
348.568359375
 10
176.791015625
 20
348.505859375
 10
184.46142578125
 20
348.3125
 10
192.140625
 20
348.38671875
 10
199.814453125
 20
348.470703125
 10
201.5947265625
 20
348.490234375
 10
202.6328125
 20
348.0546875
 10
203.470703125
 20
346.328125
 10
217.21484375
 20
318.046875
 10
231.0361328125
 20
289.802734375
 10
244.8310546875
 20
261.546875
 10
245.1083984375
 20
260.978515625
 10
245.279296875
 20
260.359375
 10
245.68359375
 20
259.267578125
 97
        0
 92
        1
 93
        1
 72
     4
 94
        3
 73
     0
 74
     1
 95
       14
 96
       10
 40
0.0
 40
0.0
 40
0.0
 40
0.0
 40
1.0
 40
1.0
 40
1.0
 40
2.0
 40
2.0
 40
2.0
 40
3.0
 40
3.0
 40
3.0
 40
3.0
 10
188.06640625
 20
327.08984375
 10
183.16845703125
 20
315.240234375
 10
178.5556640625
 20
304.08203125
 10
173.81494140625
 20
292.61328125
 10
184.07470703125
 20
292.61328125
 10
193.78125
 20
292.61328125
 10
204.01513671875
 20
292.61328125
 10
198.70703125
 20
304.087890625
 10
193.57666015625
 20
315.177734375
 10
188.06640625
 20
327.08984375
 97
        0
 75
     0
 76
     1
 98
        0
  0
SPLINE
  5
48
330
3C
100
AcDbEntity
  8
Layer 1
370
     0
100
AcDbSpline
210
0.0
220
0.0
230
1.0
 70
    11
 71
     3
 72
    17
 73
    13
 74
     0
 42
0.0000000001
 43
0.0000000001
 40
0.0
 40
0.0
 40
0.0
 40
0.0
 40
1.0
 40
1.0
 40
1.0
 40
2.0
 40
2.0
 40
2.0
 40
3.0
 40
3.0
 40
3.0
 40
4.0
 40
4.0
 40
4.0
 40
4.0
 10
462.958984375
 20
303.583984375
 30
0.0
 10
478.962890625
 20
303.583984375
 30
0.0
 10
494.705078125
 20
303.583984375
 30
0.0
 10
510.646484375
 20
303.583984375
 30
0.0
 10
510.646484375
 20
289.142578125
 30
0.0
 10
510.646484375
 20
274.865234375
 30
0.0
 10
510.646484375
 20
260.255859375
 30
0.0
 10
494.845703125
 20
260.255859375
 30
0.0
 10
479.03515625
 20
260.255859375
 30
0.0
 10
462.958984375
 20
260.255859375
 30
0.0
 10
462.958984375
 20
274.59765625
 30
0.0
 10
462.958984375
 20
288.958984375
 30
0.0
 10
462.958984375
 20
303.583984375
 30
0.0
  0
HATCH
  5
49
330
3C
100
AcDbEntity
  8
Layer 1
 62
     7
420
 16777215
100
AcDbHatch
 10
0.0
 20
0.0
 30
0.0
210
0.0
220
0.0
230
1.0
  2
SOLID
 70
     1
 71
     0
 91
        1
 92
        1
 93
        1
 72
     4
 94
        3
 73
     0
 74
     1
 95
       17
 96
       13
 40
0.0
 40
0.0
 40
0.0
 40
0.0
 40
1.0
 40
1.0
 40
1.0
 40
2.0
 40
2.0
 40
2.0
 40
3.0
 40
3.0
 40
3.0
 40
4.0
 40
4.0
 40
4.0
 40
4.0
 10
462.958984375
 20
303.583984375
 10
478.962890625
 20
303.583984375
 10
494.705078125
 20
303.583984375
 10
510.646484375
 20
303.583984375
 10
510.646484375
 20
289.142578125
 10
510.646484375
 20
274.865234375
 10
510.646484375
 20
260.255859375
 10
494.845703125
 20
260.255859375
 10
479.03515625
 20
260.255859375
 10
462.958984375
 20
260.255859375
 10
462.958984375
 20
274.59765625
 10
462.958984375
 20
288.958984375
 10
462.958984375
 20
303.583984375
 97
        0
 75
     0
 76
     1
 98
        0
  0
INSERT
  5
4B
330
3C
100
AcDbEntity
  8
Layer 1
100
AcDbBlockReference
  2
block 3
 10
0.0
 20
0.0
 30
0.0
  0
ENDBLK
  5
3F
330
3C
100
AcDbEntity
  8
0
100
AcDbBlockEnd
  0
BLOCK
  5
4C
330
4A
100
AcDbEntity
  8
0
100
AcDbBlockBegin
  2
block 3
 70
     0
 71
     0
 10
0.0
 20
0.0
 30
0.0
  3
block 3
  1

  0
SPLINE
  5
4E
330
4A
100
AcDbEntity
  8
Layer 1
370
     0
100
AcDbSpline
210
0.0
220
0.0
230
1.0
 70
    11
 71
     3
 72
    71
 73
    67
 74
     0
 42
0.0000000001
 43
0.0000000001
 40
0.0
 40
0.0
 40
0.0
 40
0.0
 40
1.0
 40
1.0
 40
1.0
 40
2.0
 40
2.0
 40
2.0
 40
3.0
 40
3.0
 40
3.0
 40
4.0
 40
4.0
 40
4.0
 40
5.0
 40
5.0
 40
5.0
 40
6.0
 40
6.0
 40
6.0
 40
7.0
 40
7.0
 40
7.0
 40
8.0
 40
8.0
 40
8.0
 40
9.0
 40
9.0
 40
9.0
 40
10.0
 40
10.0
 40
10.0
 40
11.0
 40
11.0
 40
11.0
 40
12.0
 40
12.0
 40
12.0
 40
13.0
 40
13.0
 40
13.0
 40
14.0
 40
14.0
 40
14.0
 40
15.0
 40
15.0
 40
15.0
 40
16.0
 40
16.0
 40
16.0
 40
17.0
 40
17.0
 40
17.0
 40
18.0
 40
18.0
 40
18.0
 40
19.0
 40
19.0
 40
19.0
 40
20.0
 40
20.0
 40
20.0
 40
21.0
 40
21.0
 40
21.0
 40
22.0
 40
22.0
 40
22.0
 40
22.0
 10
468.7216796875
 20
413.58837890625
 30
0.0
 10
468.7216796875
 20
415.65283203125
 30
0.0
 10
468.7216796875
 20
417.50830078125
 30
0.0
 10
468.7216796875
 20
419.68994140625
 30
0.0
 10
481.6865234375
 20
422.26123046875
 30
0.0
 10
494.6806640625
 20
424.83837890625
 30
0.0
 10
507.6767578125
 20
427.41455078125
 30
0.0
 10
507.7001953125
 20
427.66259765625
 30
0.0
 10
507.7255859375
 20
427.90966796875
 30
0.0
 10
507.7490234375
 20
428.15673828125
 30
0.0
 10
503.3701171875
 20
429.12744140625
 30
0.0
 10
498.9970703125
 20
430.11865234375
 30
0.0
 10
494.6123046875
 20
431.06103515625
 30
0.0
 10
487.2333984375
 20
432.64794921875
 30
0.0
 10
479.8818359375
 20
434.41943359375
 30
0.0
 10
472.4462890625
 20
435.67529296875
 30
0.0
 10
469.1474609375
 20
436.23193359375
 30
0.0
 10
467.9541015625
 20
437.51806640625
 30
0.0
 10
468.4716796875
 20
440.70556640625
 30
0.0
 10
468.6318359375
 20
441.68408203125
 30
0.0
 10
468.4970703125
 20
442.71142578125
 30
0.0
 10
468.4970703125
 20
444.02197265625
 30
0.0
 10
481.7861328125
 20
446.46240234375
 30
0.0
 10
494.9033203125
 20
448.87060546875
 30
0.0
 10
508.0185546875
 20
451.27783203125
 30
0.0
 10
508.0126953125
 20
451.50439453125
 30
0.0
 10
508.0048828125
 20
451.72998046875
 30
0.0
 10
507.9970703125
 20
451.95556640625
 30
0.0
 10
496.2041015625
 20
454.64892578125
 30
0.0
 10
484.4111328125
 20
457.33349609375
 30
0.0
 10
472.6201171875
 20
460.04052734375
 30
0.0
 10
467.9775390625
 20
461.10595703125
 30
0.0
 10
467.9833984375
 20
461.12841796875
 30
0.0
 10
468.9267578125
 20
466.45947265625
 30
0.0
 10
477.1103515625
 20
464.41552734375
 30
0.0
 10
485.2744140625
 20
462.36962890625
 30
0.0
 10
493.4404296875
 20
460.33642578125
 30
0.0
 10
500.1083984375
 20
458.67626953125
 30
0.0
 10
506.7451171875
 20
456.87646484375
 30
0.0
 10
513.4638671875
 20
455.44775390625
 30
0.0
 10
516.3408203125
 20
454.83447265625
 30
0.0
 10
516.0517578125
 20
453.08056640625
 30
0.0
 10
516.1767578125
 20
451.00830078125
 30
0.0
 10
516.3154296875
 20
448.71142578125
 30
0.0
 10
515.1865234375
 20
448.25244140625
 30
0.0
 10
513.2529296875
 20
447.88134765625
 30
0.0
 10
501.1904296875
 20
445.57275390625
 30
0.0
 10
489.1533203125
 20
443.13525390625
 30
0.0
 10
477.1083984375
 20
440.73291015625
 30
0.0
 10
476.5205078125
 20
440.61572265625
 30
0.0
 10
475.9482421875
 20
440.42431640625
 30
0.0
 10
475.3642578125
 20
439.59423828125
 30
0.0
 10
488.8349609375
 20
436.72021484375
 30
0.0
 10
502.3037109375
 20
433.84619140625
 30
0.0
 10
515.6357421875
 20
431.00048828125
 30
0.0
 10
515.8310546875
 20
430.58447265625
 30
0.0
 10
515.9873046875
 20
430.38916015625
 30
0.0
 10
516.0107421875
 20
430.17919921875
 30
0.0
 10
516.6591796875
 20
424.22216796875
 30
0.0
 10
516.6552734375
 20
424.23291015625
 30
0.0
 10
510.8134765625
 20
422.92333984375
 30
0.0
 10
497.4013671875
 20
419.91552734375
 30
0.0
 10
483.9931640625
 20
416.89697265625
 30
0.0
 10
470.5810546875
 20
413.88916015625
 30
0.0
 10
470.0517578125
 20
413.77001953125
 30
0.0
 10
469.5087890625
 20
413.71435546875
 30
0.0
 10
468.7216796875
 20
413.58837890625
 30
0.0
  0
HATCH
  5
4F
330
4A
100
AcDbEntity
  8
Layer 1
 62
     7
420
 16777215
100
AcDbHatch
 10
0.0
 20
0.0
 30
0.0
210
0.0
220
0.0
230
1.0
  2
SOLID
 70
     1
 71
     0
 91
        1
 92
        1
 93
        1
 72
     4
 94
        3
 73
     0
 74
     1
 95
       71
 96
       67
 40
0.0
 40
0.0
 40
0.0
 40
0.0
 40
1.0
 40
1.0
 40
1.0
 40
2.0
 40
2.0
 40
2.0
 40
3.0
 40
3.0
 40
3.0
 40
4.0
 40
4.0
 40
4.0
 40
5.0
 40
5.0
 40
5.0
 40
6.0
 40
6.0
 40
6.0
 40
7.0
 40
7.0
 40
7.0
 40
8.0
 40
8.0
 40
8.0
 40
9.0
 40
9.0
 40
9.0
 40
10.0
 40
10.0
 40
10.0
 40
11.0
 40
11.0
 40
11.0
 40
12.0
 40
12.0
 40
12.0
 40
13.0
 40
13.0
 40
13.0
 40
14.0
 40
14.0
 40
14.0
 40
15.0
 40
15.0
 40
15.0
 40
16.0
 40
16.0
 40
16.0
 40
17.0
 40
17.0
 40
17.0
 40
18.0
 40
18.0
 40
18.0
 40
19.0
 40
19.0
 40
19.0
 40
20.0
 40
20.0
 40
20.0
 40
21.0
 40
21.0
 40
21.0
 40
22.0
 40
22.0
 40
22.0
 40
22.0
 10
468.7216796875
 20
413.58837890625
 10
468.7216796875
 20
415.65283203125
 10
468.7216796875
 20
417.50830078125
 10
468.7216796875
 20
419.68994140625
 10
481.6865234375
 20
422.26123046875
 10
494.6806640625
 20
424.83837890625
 10
507.6767578125
 20
427.41455078125
 10
507.7001953125
 20
427.66259765625
 10
507.7255859375
 20
427.90966796875
 10
507.7490234375
 20
428.15673828125
 10
503.3701171875
 20
429.12744140625
 10
498.9970703125
 20
430.11865234375
 10
494.6123046875
 20
431.06103515625
 10
487.2333984375
 20
432.64794921875
 10
479.8818359375
 20
434.41943359375
 10
472.4462890625
 20
435.67529296875
 10
469.1474609375
 20
436.23193359375
 10
467.9541015625
 20
437.51806640625
 10
468.4716796875
 20
440.70556640625
 10
468.6318359375
 20
441.68408203125
 10
468.4970703125
 20
442.71142578125
 10
468.4970703125
 20
444.02197265625
 10
481.7861328125
 20
446.46240234375
 10
494.9033203125
 20
448.87060546875
 10
508.0185546875
 20
451.27783203125
 10
508.0126953125
 20
451.50439453125
 10
508.0048828125
 20
451.72998046875
 10
507.9970703125
 20
451.95556640625
 10
496.2041015625
 20
454.64892578125
 10
484.4111328125
 20
457.33349609375
 10
472.6201171875
 20
460.04052734375
 10
467.9775390625
 20
461.10595703125
 10
467.9833984375
 20
461.12841796875
 10
468.9267578125
 20
466.45947265625
 10
477.1103515625
 20
464.41552734375
 10
485.2744140625
 20
462.36962890625
 10
493.4404296875
 20
460.33642578125
 10
500.1083984375
 20
458.67626953125
 10
506.7451171875
 20
456.87646484375
 10
513.4638671875
 20
455.44775390625
 10
516.3408203125
 20
454.83447265625
 10
516.0517578125
 20
453.08056640625
 10
516.1767578125
 20
451.00830078125
 10
516.3154296875
 20
448.71142578125
 10
515.1865234375
 20
448.25244140625
 10
513.2529296875
 20
447.88134765625
 10
501.1904296875
 20
445.57275390625
 10
489.1533203125
 20
443.13525390625
 10
477.1083984375
 20
440.73291015625
 10
476.5205078125
 20
440.61572265625
 10
475.9482421875
 20
440.42431640625
 10
475.3642578125
 20
439.59423828125
 10
488.8349609375
 20
436.72021484375
 10
502.3037109375
 20
433.84619140625
 10
515.6357421875
 20
431.00048828125
 10
515.8310546875
 20
430.58447265625
 10
515.9873046875
 20
430.38916015625
 10
516.0107421875
 20
430.17919921875
 10
516.6591796875
 20
424.22216796875
 10
516.6552734375
 20
424.23291015625
 10
510.8134765625
 20
422.92333984375
 10
497.4013671875
 20
419.91552734375
 10
483.9931640625
 20
416.89697265625
 10
470.5810546875
 20
413.88916015625
 10
470.0517578125
 20
413.77001953125
 10
469.5087890625
 20
413.71435546875
 10
468.7216796875
 20
413.58837890625
 97
        0
 75
     0
 76
     1
 98
        0
  0
SPLINE
  5
50
330
4A
100
AcDbEntity
  8
Layer 1
370
     0
100
AcDbSpline
210
0.0
220
0.0
230
1.0
 70
    11
 71
     3
 72
    29
 73
    25
 74
     0
 42
0.0000000001
 43
0.0000000001
 40
0.0
 40
0.0
 40
0.0
 40
0.0
 40
1.0
 40
1.0
 40
1.0
 40
2.0
 40
2.0
 40
2.0
 40
3.0
 40
3.0
 40
3.0
 40
4.0
 40
4.0
 40
4.0
 40
5.0
 40
5.0
 40
5.0
 40
6.0
 40
6.0
 40
6.0
 40
7.0
 40
7.0
 40
7.0
 40
8.0
 40
8.0
 40
8.0
 40
8.0
 10
468.9951171875
 20
561.83447265625
 30
0.0
 10
468.9951171875
 20
567.681640625
 30
0.0
 10
468.7255859375
 20
573.19580078125
 30
0.0
 10
469.0791015625
 20
578.66943359375
 30
0.0
 10
469.3681640625
 20
583.1337890625
 30
0.0
 10
472.6787109375
 20
585.74072265625
 30
0.0
 10
476.6005859375
 20
586.92333984375
 30
0.0
 10
484.6044921875
 20
589.3359375
 30
0.0
 10
492.8759765625
 20
588.6337890625
 30
0.0
 10
501.0732421875
 20
588.14111328125
 30
0.0
 10
503.2802734375
 20
588.0087890625
 30
0.0
 10
505.5419921875
 20
587.59326171875
 30
0.0
 10
507.6279296875
 20
586.87451171875
 30
0.0
 10
513.2333984375
 20
584.9443359375
 30
0.0
 10
516.1064453125
 20
580.7529296875
 30
0.0
 10
516.1162109375
 20
574.90966796875
 30
0.0
 10
516.1220703125
 20
570.84619140625
 30
0.0
 10
516.0869140625
 20
566.78173828125
 30
0.0
 10
516.0556640625
 20
562.71826171875
 30
0.0
 10
516.0537109375
 20
562.51123046875
 30
0.0
 10
515.9052734375
 20
562.30517578125
 30
0.0
 10
515.7216796875
 20
561.83447265625
 30
0.0
 10
500.2060546875
 20
561.83447265625
 30
0.0
 10
484.5888671875
 20
561.83447265625
 30
0.0
 10
468.9951171875
 20
561.83447265625
 30
0.0
  0
SPLINE
  5
51
330
4A
100
AcDbEntity
  8
Layer 1
370
     0
100
AcDbSpline
210
0.0
220
0.0
230
1.0
 70
    11
 71
     3
 72
    23
 73
    19
 74
     0
 42
0.0000000001
 43
0.0000000001
 40
0.0
 40
0.0
 40
0.0
 40
0.0
 40
1.0
 40
1.0
 40
1.0
 40
2.0
 40
2.0
 40
2.0
 40
3.0
 40
3.0
 40
3.0
 40
4.0
 40
4.0
 40
4.0
 40
5.0
 40
5.0
 40
5.0
 40
6.0
 40
6.0
 40
6.0
 40
6.0
 10
510.9892578125
 20
567.40234375
 30
0.0
 10
510.9892578125
 20
569.19287109375
 30
0.0
 10
510.9169921875
 20
570.6474609375
 30
0.0
 10
511.0009765625
 20
572.0927734375
 30
0.0
 10
511.3447265625
 20
577.95361328125
 30
0.0
 10
508.6455078125
 20
582.19580078125
 30
0.0
 10
502.9423828125
 20
582.3291015625
 30
0.0
 10
495.2314453125
 20
582.51025390625
 30
0.0
 10
487.4951171875
 20
582.58154296875
 30
0.0
 10
479.8076171875
 20
582.091796875
 30
0.0
 10
476.5732421875
 20
581.8857421875
 30
0.0
 10
474.0693359375
 20
579.38818359375
 30
0.0
 10
473.7294921875
 20
575.8076171875
 30
0.0
 10
473.4697265625
 20
573.0625
 30
0.0
 10
473.6787109375
 20
570.27294921875
 30
0.0
 10
473.6787109375
 20
567.40234375
 30
0.0
 10
486.1943359375
 20
567.40234375
 30
0.0
 10
498.3447265625
 20
567.40234375
 30
0.0
 10
510.9892578125
 20
567.40234375
 30
0.0
  0
HATCH
  5
52
330
4A
100
AcDbEntity
  8
Layer 1
 62
     7
420
 16777215
100
AcDbHatch
 10
0.0
 20
0.0
 30
0.0
210
0.0
220
0.0
230
1.0
  2
SOLID
 70
     1
 71
     0
 91
        2
 92
        1
 93
        1
 72
     4
 94
        3
 73
     0
 74
     1
 95
       29
 96
       25
 40
0.0
 40
0.0
 40
0.0
 40
0.0
 40
1.0
 40
1.0
 40
1.0
 40
2.0
 40
2.0
 40
2.0
 40
3.0
 40
3.0
 40
3.0
 40
4.0
 40
4.0
 40
4.0
 40
5.0
 40
5.0
 40
5.0
 40
6.0
 40
6.0
 40
6.0
 40
7.0
 40
7.0
 40
7.0
 40
8.0
 40
8.0
 40
8.0
 40
8.0
 10
468.9951171875
 20
561.83447265625
 10
468.9951171875
 20
567.681640625
 10
468.7255859375
 20
573.19580078125
 10
469.0791015625
 20
578.66943359375
 10
469.3681640625
 20
583.1337890625
 10
472.6787109375
 20
585.74072265625
 10
476.6005859375
 20
586.92333984375
 10
484.6044921875
 20
589.3359375
 10
492.8759765625
 20
588.6337890625
 10
501.0732421875
 20
588.14111328125
 10
503.2802734375
 20
588.0087890625
 10
505.5419921875
 20
587.59326171875
 10
507.6279296875
 20
586.87451171875
 10
513.2333984375
 20
584.9443359375
 10
516.1064453125
 20
580.7529296875
 10
516.1162109375
 20
574.90966796875
 10
516.1220703125
 20
570.84619140625
 10
516.0869140625
 20
566.78173828125
 10
516.0556640625
 20
562.71826171875
 10
516.0537109375
 20
562.51123046875
 10
515.9052734375
 20
562.30517578125
 10
515.7216796875
 20
561.83447265625
 10
500.2060546875
 20
561.83447265625
 10
484.5888671875
 20
561.83447265625
 10
468.9951171875
 20
561.83447265625
 97
        0
 92
        1
 93
        1
 72
     4
 94
        3
 73
     0
 74
     1
 95
       23
 96
       19
 40
0.0
 40
0.0
 40
0.0
 40
0.0
 40
1.0
 40
1.0
 40
1.0
 40
2.0
 40
2.0
 40
2.0
 40
3.0
 40
3.0
 40
3.0
 40
4.0
 40
4.0
 40
4.0
 40
5.0
 40
5.0
 40
5.0
 40
6.0
 40
6.0
 40
6.0
 40
6.0
 10
510.9892578125
 20
567.40234375
 10
510.9892578125
 20
569.19287109375
 10
510.9169921875
 20
570.6474609375
 10
511.0009765625
 20
572.0927734375
 10
511.3447265625
 20
577.95361328125
 10
508.6455078125
 20
582.19580078125
 10
502.9423828125
 20
582.3291015625
 10
495.2314453125
 20
582.51025390625
 10
487.4951171875
 20
582.58154296875
 10
479.8076171875
 20
582.091796875
 10
476.5732421875
 20
581.8857421875
 10
474.0693359375
 20
579.38818359375
 10
473.7294921875
 20
575.8076171875
 10
473.4697265625
 20
573.0625
 10
473.6787109375
 20
570.27294921875
 10
473.6787109375
 20
567.40234375
 10
486.1943359375
 20
567.40234375
 10
498.3447265625
 20
567.40234375
 10
510.9892578125
 20
567.40234375
 97
        0
 75
     0
 76
     1
 98
        0
  0
SPLINE
  5
53
330
4A
100
AcDbEntity
  8
Layer 1
370
     0
100
AcDbSpline
210
0.0
220
0.0
230
1.0
 70
    11
 71
     3
 72
    44
 73
    40
 74
     0
 42
0.0000000001
 43
0.0000000001
 40
0.0
 40
0.0
 40
0.0
 40
0.0
 40
1.0
 40
1.0
 40
1.0
 40
2.0
 40
2.0
 40
2.0
 40
3.0
 40
3.0
 40
3.0
 40
4.0
 40
4.0
 40
4.0
 40
5.0
 40
5.0
 40
5.0
 40
6.0
 40
6.0
 40
6.0
 40
7.0
 40
7.0
 40
7.0
 40
8.0
 40
8.0
 40
8.0
 40
9.0
 40
9.0
 40
9.0
 40
10.0
 40
10.0
 40
10.0
 40
11.0
 40
11.0
 40
11.0
 40
12.0
 40
12.0
 40
12.0
 40
13.0
 40
13.0
 40
13.0
 40
13.0
 10
515.8662109375
 20
525.40283203125
 30
0.0
 10
516.5166015625
 20
519.45654296875
 30
0.0
 10
516.5146484375
 20
519.48291015625
 30
0.0
 10
510.8603515625
 20
519.12548828125
 30
0.0
 10
507.1611328125
 20
518.89208984375
 30
0.0
 10
503.4306640625
 20
518.80322265625
 30
0.0
 10
499.7822265625
 20
518.22802734375
 30
0.0
 10
495.9013671875
 20
517.61572265625
 30
0.0
 10
494.2529296875
 20
515.39306640625
 30
0.0
 10
494.1416015625
 20
511.47509765625
 30
0.0
 10
494.0869140625
 20
509.58447265625
 30
0.0
 10
494.1318359375
 20
507.69189453125
 30
0.0
 10
494.1318359375
 20
505.39501953125
 30
0.0
 10
501.5341796875
 20
505.39501953125
 30
0.0
 10
508.5947265625
 20
505.39501953125
 30
0.0
 10
515.8818359375
 20
505.39501953125
 30
0.0
 10
515.8818359375
 20
503.36181640625
 30
0.0
 10
515.8818359375
 20
501.73681640625
 30
0.0
 10
515.8818359375
 20
499.88720703125
 30
0.0
 10
500.1669921875
 20
499.88720703125
 30
0.0
 10
484.5458984375
 20
499.88720703125
 30
0.0
 10
468.5966796875
 20
499.88720703125
 30
0.0
 10
468.5966796875
 20
505.58935546875
 30
0.0
 10
468.3154296875
 20
511.22314453125
 30
0.0
 10
468.6943359375
 20
516.81298828125
 30
0.0
 10
468.9599609375
 20
520.73193359375
 30
0.0
 10
472.6572265625
 20
523.91064453125
 30
0.0
 10
476.4228515625
 20
524.72314453125
 30
0.0
 10
481.7041015625
 20
525.86376953125
 30
0.0
 10
486.4189453125
 20
525.33056640625
 30
0.0
 10
489.9306640625
 20
520.69482421875
 30
0.0
 10
490.4716796875
 20
519.98095703125
 30
0.0
 10
490.8759765625
 20
519.16357421875
 30
0.0
 10
491.5595703125
 20
518.03466796875
 30
0.0
 10
492.8916015625
 20
523.42236328125
 30
0.0
 10
496.9267578125
 20
523.89990234375
 30
0.0
 10
501.3291015625
 20
524.10791015625
 30
0.0
 10
506.1142578125
 20
524.33349609375
 30
0.0
 10
510.8779296875
 20
524.94189453125
 30
0.0
 10
515.8662109375
 20
525.40283203125
 30
0.0
  0
SPLINE
  5
54
330
4A
100
AcDbEntity
  8
Layer 1
370
     0
100
AcDbSpline
210
0.0
220
0.0
230
1.0
 70
    11
 71
     3
 72
    17
 73
    13
 74
     0
 42
0.0000000001
 43
0.0000000001
 40
0.0
 40
0.0
 40
0.0
 40
0.0
 40
1.0
 40
1.0
 40
1.0
 40
2.0
 40
2.0
 40
2.0
 40
3.0
 40
3.0
 40
3.0
 40
4.0
 40
4.0
 40
4.0
 40
4.0
 10
473.5166015625
 20
505.54833984375
 30
0.0
 10
478.9248046875
 20
505.54833984375
 30
0.0
 10
483.9287109375
 20
505.54833984375
 30
0.0
 10
489.3369140625
 20
505.54833984375
 30
0.0
 10
488.5126953125
 20
510.00341796875
 30
0.0
 10
490.9755859375
 20
514.98291015625
 30
0.0
 10
486.2587890625
 20
518.12939453125
 30
0.0
 10
483.0634765625
 20
520.26123046875
 30
0.0
 10
479.3466796875
 20
520.48291015625
 30
0.0
 10
476.1728515625
 20
518.15185546875
 30
0.0
 10
471.6728515625
 20
514.84716796875
 30
0.0
 10
474.2333984375
 20
509.94775390625
 30
0.0
 10
473.5166015625
 20
505.54833984375
 30
0.0
  0
HATCH
  5
55
330
4A
100
AcDbEntity
  8
Layer 1
 62
     7
420
 16777215
100
AcDbHatch
 10
0.0
 20
0.0
 30
0.0
210
0.0
220
0.0
230
1.0
  2
SOLID
 70
     1
 71
     0
 91
        2
 92
        1
 93
        1
 72
     4
 94
        3
 73
     0
 74
     1
 95
       44
 96
       40
 40
0.0
 40
0.0
 40
0.0
 40
0.0
 40
1.0
 40
1.0
 40
1.0
 40
2.0
 40
2.0
 40
2.0
 40
3.0
 40
3.0
 40
3.0
 40
4.0
 40
4.0
 40
4.0
 40
5.0
 40
5.0
 40
5.0
 40
6.0
 40
6.0
 40
6.0
 40
7.0
 40
7.0
 40
7.0
 40
8.0
 40
8.0
 40
8.0
 40
9.0
 40
9.0
 40
9.0
 40
10.0
 40
10.0
 40
10.0
 40
11.0
 40
11.0
 40
11.0
 40
12.0
 40
12.0
 40
12.0
 40
13.0
 40
13.0
 40
13.0
 40
13.0
 10
515.8662109375
 20
525.40283203125
 10
516.5166015625
 20
519.45654296875
 10
516.5146484375
 20
519.48291015625
 10
510.8603515625
 20
519.12548828125
 10
507.1611328125
 20
518.89208984375
 10
503.4306640625
 20
518.80322265625
 10
499.7822265625
 20
518.22802734375
 10
495.9013671875
 20
517.61572265625
 10
494.2529296875
 20
515.39306640625
 10
494.1416015625
 20
511.47509765625
 10
494.0869140625
 20
509.58447265625
 10
494.1318359375
 20
507.69189453125
 10
494.1318359375
 20
505.39501953125
 10
501.5341796875
 20
505.39501953125
 10
508.5947265625
 20
505.39501953125
 10
515.8818359375
 20
505.39501953125
 10
515.8818359375
 20
503.36181640625
 10
515.8818359375
 20
501.73681640625
 10
515.8818359375
 20
499.88720703125
 10
500.1669921875
 20
499.88720703125
 10
484.5458984375
 20
499.88720703125
 10
468.5966796875
 20
499.88720703125
 10
468.5966796875
 20
505.58935546875
 10
468.3154296875
 20
511.22314453125
 10
468.6943359375
 20
516.81298828125
 10
468.9599609375
 20
520.73193359375
 10
472.6572265625
 20
523.91064453125
 10
476.4228515625
 20
524.72314453125
 10
481.7041015625
 20
525.86376953125
 10
486.4189453125
 20
525.33056640625
 10
489.9306640625
 20
520.69482421875
 10
490.4716796875
 20
519.98095703125
 10
490.8759765625
 20
519.16357421875
 10
491.5595703125
 20
518.03466796875
 10
492.8916015625
 20
523.42236328125
 10
496.9267578125
 20
523.89990234375
 10
501.3291015625
 20
524.10791015625
 10
506.1142578125
 20
524.33349609375
 10
510.8779296875
 20
524.94189453125
 10
515.8662109375
 20
525.40283203125
 97
        0
 92
        1
 93
        1
 72
     4
 94
        3
 73
     0
 74
     1
 95
       17
 96
       13
 40
0.0
 40
0.0
 40
0.0
 40
0.0
 40
1.0
 40
1.0
 40
1.0
 40
2.0
 40
2.0
 40
2.0
 40
3.0
 40
3.0
 40
3.0
 40
4.0
 40
4.0
 40
4.0
 40
4.0
 10
473.5166015625
 20
505.54833984375
 10
478.9248046875
 20
505.54833984375
 10
483.9287109375
 20
505.54833984375
 10
489.3369140625
 20
505.54833984375
 10
488.5126953125
 20
510.00341796875
 10
490.9755859375
 20
514.98291015625
 10
486.2587890625
 20
518.12939453125
 10
483.0634765625
 20
520.26123046875
 10
479.3466796875
 20
520.48291015625
 10
476.1728515625
 20
518.15185546875
 10
471.6728515625
 20
514.84716796875
 10
474.2333984375
 20
509.94775390625
 10
473.5166015625
 20
505.54833984375
 97
        0
 75
     0
 76
     1
 98
        0
  0
SPLINE
  5
56
330
4A
100
AcDbEntity
  8
Layer 1
370
     0
100
AcDbSpline
210
0.0
220
0.0
230
1.0
 70
    11
 71
     3
 72
    26
 73
    22
 74
     0
 42
0.0000000001
 43
0.0000000001
 40
0.0
 40
0.0
 40
0.0
 40
0.0
 40
1.0
 40
1.0
 40
1.0
 40
2.0
 40
2.0
 40
2.0
 40
3.0
 40
3.0
 40
3.0
 40
4.0
 40
4.0
 40
4.0
 40
5.0
 40
5.0
 40
5.0
 40
6.0
 40
6.0
 40
6.0
 40
7.0
 40
7.0
 40
7.0
 40
7.0
 10
492.1103515625
 20
381.966796875
 30
0.0
 10
487.1904296875
 20
382.232421875
 30
0.0
 10
482.7509765625
 20
382.072265625
 30
0.0
 10
478.4560546875
 20
382.78125
 30
0.0
 10
466.4267578125
 20
384.763671875
 30
0.0
 10
464.4033203125
 20
397.46533203125
 30
0.0
 10
470.6884765625
 20
404.95947265625
 30
0.0
 10
472.7822265625
 20
407.45556640625
 30
0.0
 10
477.1201171875
 20
409.14501953125
 30
0.0
 10
480.5048828125
 20
409.27099609375
 30
0.0
 10
489.4501953125
 20
409.60205078125
 30
0.0
 10
498.5146484375
 20
409.49072265625
 30
0.0
 10
507.3837890625
 20
408.38525390625
 30
0.0
 10
515.0537109375
 20
407.42724609375
 30
0.0
 10
517.6337890625
 20
402.73095703125
 30
0.0
 10
517.2802734375
 20
393.828125
 30
0.0
 10
517.0556640625
 20
388.185546875
 30
0.0
 10
512.8740234375
 20
383.75390625
 30
0.0
 10
506.3779296875
 20
382.91796875
 30
0.0
 10
501.4873046875
 20
382.291015625
 30
0.0
 10
496.5224609375
 20
382.2421875
 30
0.0
 10
492.1103515625
 20
381.966796875
 30
0.0
  0
SPLINE
  5
57
330
4A
100
AcDbEntity
  8
Layer 1
370
     0
100
AcDbSpline
210
0.0
220
0.0
230
1.0
 70
    11
 71
     3
 72
    29
 73
    25
 74
     0
 42
0.0000000001
 43
0.0000000001
 40
0.0
 40
0.0
 40
0.0
 40
0.0
 40
1.0
 40
1.0
 40
1.0
 40
2.0
 40
2.0
 40
2.0
 40
3.0
 40
3.0
 40
3.0
 40
4.0
 40
4.0
 40
4.0
 40
5.0
 40
5.0
 40
5.0
 40
6.0
 40
6.0
 40
6.0
 40
7.0
 40
7.0
 40
7.0
 40
8.0
 40
8.0
 40
8.0
 40
8.0
 10
491.4541015625
 20
387.5234375
 30
0.0
 10
496.2490234375
 20
387.8359375
 30
0.0
 10
500.9521484375
 20
388.029296875
 30
0.0
 10
505.6337890625
 20
388.478515625
 30
0.0
 10
509.5244140625
 20
388.8515625
 30
0.0
 10
511.9580078125
 20
391.37890625
 30
0.0
 10
512.2548828125
 20
394.921875
 30
0.0
 10
512.6240234375
 20
399.32470703125
 30
0.0
 10
511.1005859375
 20
402.10791015625
 30
0.0
 10
506.7958984375
 20
402.79052734375
 30
0.0
 10
501.4150390625
 20
403.64306640625
 30
0.0
 10
495.9072265625
 20
403.87646484375
 30
0.0
 10
490.4462890625
 20
403.98095703125
 30
0.0
 10
486.4384765625
 20
404.05517578125
 30
0.0
 10
482.3525390625
 20
403.85400390625
 30
0.0
 10
478.4228515625
 20
403.11572265625
 30
0.0
 10
474.2470703125
 20
402.33154296875
 30
0.0
 10
472.8134765625
 20
399.80419921875
 30
0.0
 10
472.9189453125
 20
395.19140625
 30
0.0
 10
472.9970703125
 20
391.748046875
 30
0.0
 10
474.9853515625
 20
389.115234375
 30
0.0
 10
478.8017578125
 20
388.51953125
 30
0.0
 10
482.9892578125
 20
387.865234375
 30
0.0
 10
487.2744140625
 20
387.826171875
 30
0.0
 10
491.4541015625
 20
387.5234375
 30
0.0
  0
HATCH
  5
58
330
4A
100
AcDbEntity
  8
Layer 1
 62
     7
420
 16777215
100
AcDbHatch
 10
0.0
 20
0.0
 30
0.0
210
0.0
220
0.0
230
1.0
  2
SOLID
 70
     1
 71
     0
 91
        2
 92
        1
 93
        1
 72
     4
 94
        3
 73
     0
 74
     1
 95
       26
 96
       22
 40
0.0
 40
0.0
 40
0.0
 40
0.0
 40
1.0
 40
1.0
 40
1.0
 40
2.0
 40
2.0
 40
2.0
 40
3.0
 40
3.0
 40
3.0
 40
4.0
 40
4.0
 40
4.0
 40
5.0
 40
5.0
 40
5.0
 40
6.0
 40
6.0
 40
6.0
 40
7.0
 40
7.0
 40
7.0
 40
7.0
 10
492.1103515625
 20
381.966796875
 10
487.1904296875
 20
382.232421875
 10
482.7509765625
 20
382.072265625
 10
478.4560546875
 20
382.78125
 10
466.4267578125
 20
384.763671875
 10
464.4033203125
 20
397.46533203125
 10
470.6884765625
 20
404.95947265625
 10
472.7822265625
 20
407.45556640625
 10
477.1201171875
 20
409.14501953125
 10
480.5048828125
 20
409.27099609375
 10
489.4501953125
 20
409.60205078125
 10
498.5146484375
 20
409.49072265625
 10
507.3837890625
 20
408.38525390625
 10
515.0537109375
 20
407.42724609375
 10
517.6337890625
 20
402.73095703125
 10
517.2802734375
 20
393.828125
 10
517.0556640625
 20
388.185546875
 10
512.8740234375
 20
383.75390625
 10
506.3779296875
 20
382.91796875
 10
501.4873046875
 20
382.291015625
 10
496.5224609375
 20
382.2421875
 10
492.1103515625
 20
381.966796875
 97
        0
 92
        1
 93
        1
 72
     4
 94
        3
 73
     0
 74
     1
 95
       29
 96
       25
 40
0.0
 40
0.0
 40
0.0
 40
0.0
 40
1.0
 40
1.0
 40
1.0
 40
2.0
 40
2.0
 40
2.0
 40
3.0
 40
3.0
 40
3.0
 40
4.0
 40
4.0
 40
4.0
 40
5.0
 40
5.0
 40
5.0
 40
6.0
 40
6.0
 40
6.0
 40
7.0
 40
7.0
 40
7.0
 40
8.0
 40
8.0
 40
8.0
 40
8.0
 10
491.4541015625
 20
387.5234375
 10
496.2490234375
 20
387.8359375
 10
500.9521484375
 20
388.029296875
 10
505.6337890625
 20
388.478515625
 10
509.5244140625
 20
388.8515625
 10
511.9580078125
 20
391.37890625
 10
512.2548828125
 20
394.921875
 10
512.6240234375
 20
399.32470703125
 10
511.1005859375
 20
402.10791015625
 10
506.7958984375
 20
402.79052734375
 10
501.4150390625
 20
403.64306640625
 10
495.9072265625
 20
403.87646484375
 10
490.4462890625
 20
403.98095703125
 10
486.4384765625
 20
404.05517578125
 10
482.3525390625
 20
403.85400390625
 10
478.4228515625
 20
403.11572265625
 10
474.2470703125
 20
402.33154296875
 10
472.8134765625
 20
399.80419921875
 10
472.9189453125
 20
395.19140625
 10
472.9970703125
 20
391.748046875
 10
474.9853515625
 20
389.115234375
 10
478.8017578125
 20
388.51953125
 10
482.9892578125
 20
387.865234375
 10
487.2744140625
 20
387.826171875
 10
491.4541015625
 20
387.5234375
 97
        0
 75
     0
 76
     1
 98
        0
  0
SPLINE
  5
59
330
4A
100
AcDbEntity
  8
Layer 1
370
     0
100
AcDbSpline
210
0.0
220
0.0
230
1.0
 70
    11
 71
     3
 72
    41
 73
    37
 74
     0
 42
0.0000000001
 43
0.0000000001
 40
0.0
 40
0.0
 40
0.0
 40
0.0
 40
1.0
 40
1.0
 40
1.0
 40
2.0
 40
2.0
 40
2.0
 40
3.0
 40
3.0
 40
3.0
 40
4.0
 40
4.0
 40
4.0
 40
5.0
 40
5.0
 40
5.0
 40
6.0
 40
6.0
 40
6.0
 40
7.0
 40
7.0
 40
7.0
 40
8.0
 40
8.0
 40
8.0
 40
9.0
 40
9.0
 40
9.0
 40
10.0
 40
10.0
 40
10.0
 40
11.0
 40
11.0
 40
11.0
 40
12.0
 40
12.0
 40
12.0
 40
12.0
 10
468.7177734375
 20
532.41650390625
 30
0.0
 10
468.7177734375
 20
539.763671875
 30
0.0
 10
468.7177734375
 20
547.04248046875
 30
0.0
 10
468.7177734375
 20
554.4931640625
 30
0.0
 10
470.3115234375
 20
554.4931640625
 30
0.0
 10
471.7412109375
 20
554.4931640625
 30
0.0
 10
473.4853515625
 20
554.4931640625
 30
0.0
 10
473.4853515625
 20
549.02001953125
 30
0.0
 10
473.4853515625
 20
543.63916015625
 30
0.0
 10
473.4853515625
 20
538.02490234375
 30
0.0
 10
478.8037109375
 20
538.02490234375
 30
0.0
 10
483.8115234375
 20
538.02490234375
 30
0.0
 10
489.1240234375
 20
538.02490234375
 30
0.0
 10
489.1240234375
 20
543.083984375
 30
0.0
 10
489.1240234375
 20
548.001953125
 30
0.0
 10
489.1240234375
 20
553.17431640625
 30
0.0
 10
491.0341796875
 20
553.17431640625
 30
0.0
 10
492.6513671875
 20
553.17431640625
 30
0.0
 10
494.5966796875
 20
553.17431640625
 30
0.0
 10
494.5966796875
 20
548.24658203125
 30
0.0
 10
494.5966796875
 20
543.322265625
 30
0.0
 10
494.5966796875
 20
538.0927734375
 30
0.0
 10
500.1279296875
 20
538.0927734375
 30
0.0
 10
505.3447265625
 20
538.0927734375
 30
0.0
 10
510.9404296875
 20
538.0927734375
 30
0.0
 10
510.9404296875
 20
543.7138671875
 30
0.0
 10
510.9404296875
 20
549.29931640625
 30
0.0
 10
510.9404296875
 20
555.083984375
 30
0.0
 10
512.7236328125
 20
555.083984375
 30
0.0
 10
514.1376953125
 20
555.083984375
 30
0.0
 10
515.8388671875
 20
555.083984375
 30
0.0
 10
515.8388671875
 20
547.5927734375
 30
0.0
 10
515.8388671875
 20
540.11962890625
 30
0.0
 10
515.8388671875
 20
532.41650390625
 30
0.0
 10
500.1708984375
 20
532.41650390625
 30
0.0
 10
484.5556640625
 20
532.41650390625
 30
0.0
 10
468.7177734375
 20
532.41650390625
 30
0.0
  0
HATCH
  5
5A
330
4A
100
AcDbEntity
  8
Layer 1
 62
     7
420
 16777215
100
AcDbHatch
 10
0.0
 20
0.0
 30
0.0
210
0.0
220
0.0
230
1.0
  2
SOLID
 70
     1
 71
     0
 91
        1
 92
        1
 93
        1
 72
     4
 94
        3
 73
     0
 74
     1
 95
       41
 96
       37
 40
0.0
 40
0.0
 40
0.0
 40
0.0
 40
1.0
 40
1.0
 40
1.0
 40
2.0
 40
2.0
 40
2.0
 40
3.0
 40
3.0
 40
3.0
 40
4.0
 40
4.0
 40
4.0
 40
5.0
 40
5.0
 40
5.0
 40
6.0
 40
6.0
 40
6.0
 40
7.0
 40
7.0
 40
7.0
 40
8.0
 40
8.0
 40
8.0
 40
9.0
 40
9.0
 40
9.0
 40
10.0
 40
10.0
 40
10.0
 40
11.0
 40
11.0
 40
11.0
 40
12.0
 40
12.0
 40
12.0
 40
12.0
 10
468.7177734375
 20
532.41650390625
 10
468.7177734375
 20
539.763671875
 10
468.7177734375
 20
547.04248046875
 10
468.7177734375
 20
554.4931640625
 10
470.3115234375
 20
554.4931640625
 10
471.7412109375
 20
554.4931640625
 10
473.4853515625
 20
554.4931640625
 10
473.4853515625
 20
549.02001953125
 10
473.4853515625
 20
543.63916015625
 10
473.4853515625
 20
538.02490234375
 10
478.8037109375
 20
538.02490234375
 10
483.8115234375
 20
538.02490234375
 10
489.1240234375
 20
538.02490234375
 10
489.1240234375
 20
543.083984375
 10
489.1240234375
 20
548.001953125
 10
489.1240234375
 20
553.17431640625
 10
491.0341796875
 20
553.17431640625
 10
492.6513671875
 20
553.17431640625
 10
494.5966796875
 20
553.17431640625
 10
494.5966796875
 20
548.24658203125
 10
494.5966796875
 20
543.322265625
 10
494.5966796875
 20
538.0927734375
 10
500.1279296875
 20
538.0927734375
 10
505.3447265625
 20
538.0927734375
 10
510.9404296875
 20
538.0927734375
 10
510.9404296875
 20
543.7138671875
 10
510.9404296875
 20
549.29931640625
 10
510.9404296875
 20
555.083984375
 10
512.7236328125
 20
555.083984375
 10
514.1376953125
 20
555.083984375
 10
515.8388671875
 20
555.083984375
 10
515.8388671875
 20
547.5927734375
 10
515.8388671875
 20
540.11962890625
 10
515.8388671875
 20
532.41650390625
 10
500.1708984375
 20
532.41650390625
 10
484.5556640625
 20
532.41650390625
 10
468.7177734375
 20
532.41650390625
 97
        0
 75
     0
 76
     1
 98
        0
  0
SPLINE
  5
5B
330
4A
100
AcDbEntity
  8
Layer 1
370
     0
100
AcDbSpline
210
0.0
220
0.0
230
1.0
 70
    11
 71
     3
 72
    41
 73
    37
 74
     0
 42
0.0000000001
 43
0.0000000001
 40
0.0
 40
0.0
 40
0.0
 40
0.0
 40
1.0
 40
1.0
 40
1.0
 40
2.0
 40
2.0
 40
2.0
 40
3.0
 40
3.0
 40
3.0
 40
4.0
 40
4.0
 40
4.0
 40
5.0
 40
5.0
 40
5.0
 40
6.0
 40
6.0
 40
6.0
 40
7.0
 40
7.0
 40
7.0
 40
8.0
 40
8.0
 40
8.0
 40
9.0
 40
9.0
 40
9.0
 40
10.0
 40
10.0
 40
10.0
 40
11.0
 40
11.0
 40
11.0
 40
12.0
 40
12.0
 40
12.0
 40
12.0
 10
515.9501953125
 20
493.27978515625
 30
0.0
 10
515.9501953125
 20
485.91259765625
 30
0.0
 10
515.9501953125
 20
478.73095703125
 30
0.0
 10
515.9501953125
 20
471.26611328125
 30
0.0
 10
500.2255859375
 20
471.26611328125
 30
0.0
 10
484.6064453125
 20
471.26611328125
 30
0.0
 10
468.7431640625
 20
471.26611328125
 30
0.0
 10
468.7431640625
 20
478.32275390625
 30
0.0
 10
468.7431640625
 20
485.37548828125
 30
0.0
 10
468.7431640625
 20
492.63232421875
 30
0.0
 10
470.2138671875
 20
492.63232421875
 30
0.0
 10
471.6318359375
 20
492.63232421875
 30
0.0
 10
473.4345703125
 20
492.63232421875
 30
0.0
 10
473.4345703125
 20
487.47119140625
 30
0.0
 10
473.4345703125
 20
482.23388671875
 30
0.0
 10
473.4345703125
 20
476.78955078125
 30
0.0
 10
478.8154296875
 20
476.78955078125
 30
0.0
 10
483.8193359375
 20
476.78955078125
 30
0.0
 10
489.0869140625
 20
476.78955078125
 30
0.0
 10
489.0869140625
 20
481.81591796875
 30
0.0
 10
489.0869140625
 20
486.74365234375
 30
0.0
 10
489.0869140625
 20
491.92529296875
 30
0.0
 10
490.9580078125
 20
491.92529296875
 30
0.0
 10
492.5830078125
 20
491.92529296875
 30
0.0
 10
494.6181640625
 20
491.92529296875
 30
0.0
 10
494.6181640625
 20
487.02392578125
 30
0.0
 10
494.6181640625
 20
482.01025390625
 30
0.0
 10
494.6181640625
 20
476.79345703125
 30
0.0
 10
500.1552734375
 20
476.79345703125
 30
0.0
 10
505.2958984375
 20
476.79345703125
 30
0.0
 10
510.8662109375
 20
476.79345703125
 30
0.0
 10
510.8662109375
 20
482.17041015625
 30
0.0
 10
510.8662109375
 20
487.62548828125
 30
0.0
 10
510.8662109375
 20
493.27978515625
 30
0.0
 10
512.7080078125
 20
493.27978515625
 30
0.0
 10
514.1240234375
 20
493.27978515625
 30
0.0
 10
515.9501953125
 20
493.27978515625
 30
0.0
  0
HATCH
  5
5C
330
4A
100
AcDbEntity
  8
Layer 1
 62
     7
420
 16777215
100
AcDbHatch
 10
0.0
 20
0.0
 30
0.0
210
0.0
220
0.0
230
1.0
  2
SOLID
 70
     1
 71
     0
 91
        1
 92
        1
 93
        1
 72
     4
 94
        3
 73
     0
 74
     1
 95
       41
 96
       37
 40
0.0
 40
0.0
 40
0.0
 40
0.0
 40
1.0
 40
1.0
 40
1.0
 40
2.0
 40
2.0
 40
2.0
 40
3.0
 40
3.0
 40
3.0
 40
4.0
 40
4.0
 40
4.0
 40
5.0
 40
5.0
 40
5.0
 40
6.0
 40
6.0
 40
6.0
 40
7.0
 40
7.0
 40
7.0
 40
8.0
 40
8.0
 40
8.0
 40
9.0
 40
9.0
 40
9.0
 40
10.0
 40
10.0
 40
10.0
 40
11.0
 40
11.0
 40
11.0
 40
12.0
 40
12.0
 40
12.0
 40
12.0
 10
515.9501953125
 20
493.27978515625
 10
515.9501953125
 20
485.91259765625
 10
515.9501953125
 20
478.73095703125
 10
515.9501953125
 20
471.26611328125
 10
500.2255859375
 20
471.26611328125
 10
484.6064453125
 20
471.26611328125
 10
468.7431640625
 20
471.26611328125
 10
468.7431640625
 20
478.32275390625
 10
468.7431640625
 20
485.37548828125
 10
468.7431640625
 20
492.63232421875
 10
470.2138671875
 20
492.63232421875
 10
471.6318359375
 20
492.63232421875
 10
473.4345703125
 20
492.63232421875
 10
473.4345703125
 20
487.47119140625
 10
473.4345703125
 20
482.23388671875
 10
473.4345703125
 20
476.78955078125
 10
478.8154296875
 20
476.78955078125
 10
483.8193359375
 20
476.78955078125
 10
489.0869140625
 20
476.78955078125
 10
489.0869140625
 20
481.81591796875
 10
489.0869140625
 20
486.74365234375
 10
489.0869140625
 20
491.92529296875
 10
490.9580078125
 20
491.92529296875
 10
492.5830078125
 20
491.92529296875
 10
494.6181640625
 20
491.92529296875
 10
494.6181640625
 20
487.02392578125
 10
494.6181640625
 20
482.01025390625
 10
494.6181640625
 20
476.79345703125
 10
500.1552734375
 20
476.79345703125
 10
505.2958984375
 20
476.79345703125
 10
510.8662109375
 20
476.79345703125
 10
510.8662109375
 20
482.17041015625
 10
510.8662109375
 20
487.62548828125
 10
510.8662109375
 20
493.27978515625
 10
512.7080078125
 20
493.27978515625
 10
514.1240234375
 20
493.27978515625
 10
515.9501953125
 20
493.27978515625
 97
        0
 75
     0
 76
     1
 98
        0
  0
SPLINE
  5
5D
330
4A
100
AcDbEntity
  8
Layer 1
370
     0
100
AcDbSpline
210
0.0
220
0.0
230
1.0
 70
    11
 71
     3
 72
    29
 73
    25
 74
     0
 42
0.0000000001
 43
0.0000000001
 40
0.0
 40
0.0
 40
0.0
 40
0.0
 40
1.0
 40
1.0
 40
1.0
 40
2.0
 40
2.0
 40
2.0
 40
3.0
 40
3.0
 40
3.0
 40
4.0
 40
4.0
 40
4.0
 40
5.0
 40
5.0
 40
5.0
 40
6.0
 40
6.0
 40
6.0
 40
7.0
 40
7.0
 40
7.0
 40
8.0
 40
8.0
 40
8.0
 40
8.0
 10
495.3701171875
 20
356.02734375
 30
0.0
 10
502.3408203125
 20
356.02734375
 30
0.0
 10
508.9521484375
 20
356.02734375
 30
0.0
 10
515.8388671875
 20
356.02734375
 30
0.0
 10
515.8388671875
 20
354.376953125
 30
0.0
 10
515.8388671875
 20
352.984375
 30
0.0
 10
515.8388671875
 20
351.2578125
 30
0.0
 10
500.2275390625
 20
351.2578125
 30
0.0
 10
484.5576171875
 20
351.2578125
 30
0.0
 10
468.2470703125
 20
351.2578125
 30
0.0
 10
468.5419921875
 20
356.837890625
 30
0.0
 10
468.5966796875
 20
362.328125
 30
0.0
 10
469.2548828125
 20
367.74609375
 30
0.0
 10
469.4716796875
 20
369.525390625
 30
0.0
 10
470.9013671875
 20
371.58984375
 30
0.0
 10
472.3896484375
 20
372.703125
 30
0.0
 10
477.0732421875
 20
376.212890625
 30
0.0
 10
482.4912109375
 20
376.15234375
 30
0.0
 10
487.8076171875
 20
374.494140625
 30
0.0
 10
493.5087890625
 20
372.71484375
 30
0.0
 10
495.0517578125
 20
367.95703125
 30
0.0
 10
495.3525390625
 20
362.611328125
 30
0.0
 10
495.4658203125
 20
360.59375
 30
0.0
 10
495.3701171875
 20
358.5625
 30
0.0
 10
495.3701171875
 20
356.02734375
 30
0.0
  0
SPLINE
  5
5E
330
4A
100
AcDbEntity
  8
Layer 1
370
     0
100
AcDbSpline
210
0.0
220
0.0
230
1.0
 70
    11
 71
     3
 72
    17
 73
    13
 74
     0
 42
0.0000000001
 43
0.0000000001
 40
0.0
 40
0.0
 40
0.0
 40
0.0
 40
1.0
 40
1.0
 40
1.0
 40
2.0
 40
2.0
 40
2.0
 40
3.0
 40
3.0
 40
3.0
 40
4.0
 40
4.0
 40
4.0
 40
4.0
 10
489.6669921875
 20
356.1015625
 30
0.0
 10
490.2333984375
 20
364.751953125
 30
0.0
 10
489.7587890625
 20
367.46875
 30
0.0
 10
486.7548828125
 20
368.7421875
 30
0.0
 10
483.2587890625
 20
370.22265625
 30
0.0
 10
479.4287109375
 20
370.546875
 30
0.0
 10
476.2021484375
 20
368.173828125
 30
0.0
 10
471.8408203125
 20
364.96875
 30
0.0
 10
474.0693359375
 20
360.28125
 30
0.0
 10
473.6044921875
 20
356.1015625
 30
0.0
 10
479.2060546875
 20
356.1015625
 30
0.0
 10
484.3330078125
 20
356.1015625
 30
0.0
 10
489.6669921875
 20
356.1015625
 30
0.0
  0
HATCH
  5
5F
330
4A
100
AcDbEntity
  8
Layer 1
 62
     7
420
 16777215
100
AcDbHatch
 10
0.0
 20
0.0
 30
0.0
210
0.0
220
0.0
230
1.0
  2
SOLID
 70
     1
 71
     0
 91
        2
 92
        1
 93
        1
 72
     4
 94
        3
 73
     0
 74
     1
 95
       29
 96
       25
 40
0.0
 40
0.0
 40
0.0
 40
0.0
 40
1.0
 40
1.0
 40
1.0
 40
2.0
 40
2.0
 40
2.0
 40
3.0
 40
3.0
 40
3.0
 40
4.0
 40
4.0
 40
4.0
 40
5.0
 40
5.0
 40
5.0
 40
6.0
 40
6.0
 40
6.0
 40
7.0
 40
7.0
 40
7.0
 40
8.0
 40
8.0
 40
8.0
 40
8.0
 10
495.3701171875
 20
356.02734375
 10
502.3408203125
 20
356.02734375
 10
508.9521484375
 20
356.02734375
 10
515.8388671875
 20
356.02734375
 10
515.8388671875
 20
354.376953125
 10
515.8388671875
 20
352.984375
 10
515.8388671875
 20
351.2578125
 10
500.2275390625
 20
351.2578125
 10
484.5576171875
 20
351.2578125
 10
468.2470703125
 20
351.2578125
 10
468.5419921875
 20
356.837890625
 10
468.5966796875
 20
362.328125
 10
469.2548828125
 20
367.74609375
 10
469.4716796875
 20
369.525390625
 10
470.9013671875
 20
371.58984375
 10
472.3896484375
 20
372.703125
 10
477.0732421875
 20
376.212890625
 10
482.4912109375
 20
376.15234375
 10
487.8076171875
 20
374.494140625
 10
493.5087890625
 20
372.71484375
 10
495.0517578125
 20
367.95703125
 10
495.3525390625
 20
362.611328125
 10
495.4658203125
 20
360.59375
 10
495.3701171875
 20
358.5625
 10
495.3701171875
 20
356.02734375
 97
        0
 92
        1
 93
        1
 72
     4
 94
        3
 73
     0
 74
     1
 95
       17
 96
       13
 40
0.0
 40
0.0
 40
0.0
 40
0.0
 40
1.0
 40
1.0
 40
1.0
 40
2.0
 40
2.0
 40
2.0
 40
3.0
 40
3.0
 40
3.0
 40
4.0
 40
4.0
 40
4.0
 40
4.0
 10
489.6669921875
 20
356.1015625
 10
490.2333984375
 20
364.751953125
 10
489.7587890625
 20
367.46875
 10
486.7548828125
 20
368.7421875
 10
483.2587890625
 20
370.22265625
 10
479.4287109375
 20
370.546875
 10
476.2021484375
 20
368.173828125
 10
471.8408203125
 20
364.96875
 10
474.0693359375
 20
360.28125
 10
473.6044921875
 20
356.1015625
 10
479.2060546875
 20
356.1015625
 10
484.3330078125
 20
356.1015625
 10
489.6669921875
 20
356.1015625
 97
        0
 75
     0
 76
     1
 98
        0
  0
ENDBLK
  5
4D
330
4A
100
AcDbEntity
  8
0
100
AcDbBlockEnd
  0
ENDSEC
  0
SECTION
  2
ENTITIES
  0
INSERT
  5
3D
330
1F
100
AcDbEntity
  8
Layer 1
100
AcDbBlockReference
  2
block 2
 10
0.0
 20
0.0
 30
0.0
  0
ENDSEC
  0
SECTION
  2
OBJECTS
  0
DICTIONARY
  5
C
330
0
100
AcDbDictionary
281
     1
  3
ACAD_GROUP
350
D
  3
ACAD_LAYOUT
350
1A
  3
ACAD_MLINESTYLE
350
17
  3
ACAD_PLOTSETTINGS
350
19
  3
ACAD_PLOTSTYLENAME
350
E
  3
ACAD_TABLESTYLE
350
60
  3
ACAD_VISUALSTYLE
350
2A
  0
DICTIONARY
  5
D
102
{ACAD_REACTORS
330
C
102
}
330
C
100
AcDbDictionary
281
     1
  0
DICTIONARY
  5
1A
102
{ACAD_REACTORS
330
C
102
}
330
C
100
AcDbDictionary
281
     1
  3
Layout1
350
1E
  3
Layout2
350
26
  3
Model
350
22
  0
DICTIONARY
  5
17
102
{ACAD_REACTORS
330
C
102
}
330
C
100
AcDbDictionary
281
     1
  3
Standard
350
18
  0
DICTIONARY
  5
19
102
{ACAD_REACTORS
330
C
102
}
330
C
100
AcDbDictionary
281
     1
  0
ACDBDICTIONARYWDFLT
  5
E
102
{ACAD_REACTORS
330
C
102
}
330
C
100
AcDbDictionary
281
     1
  3
Normal
350
F
100
AcDbDictionaryWithDefault
340
F
  0
DICTIONARY
  5
60
102
{ACAD_REACTORS
330
C
102
}
330
C
100
AcDbDictionary
281
     1
  0
DICTIONARY
  5
2A
102
{ACAD_REACTORS
330
C
102
}
330
C
100
AcDbDictionary
281
     1
  3
2dWireframe
350
2F
  3
3D Hidden
350
31
  3
3dWireframe
350
30
  3
Basic
350
32
  3
Brighten
350
36
  3
ColorChange
350
3A
  3
Conceptual
350
34
  3
Dim
350
35
  3
Facepattern
350
39
  3
Flat
350
2B
  3
FlatWithEdges
350
2C
  3
Gouraud
350
2D
  3
GouraudWithEdges
350
2E
  3
Linepattern
350
38
  3
Realistic
350
33
  3
Thicken
350
37
  0
LAYOUT
  5
1E
102
{ACAD_REACTORS
330
1A
102
}
330
1A
100
AcDbPlotSettings
  1

  2
none_device
  4

  6

 40
0.0
 41
0.0
 42
0.0
 43
0.0
 44
0.0
 45
0.0
 46
0.0
 47
0.0
 48
0.0
 49
0.0
140
0.0
141
0.0
142
1.0
143
1.0
 70
   688
 72
     0
 73
     0
 74
     5
  7

 75
    16
 76
     0
 77
     2
 78
   300
147
1.0
148
0.0
149
0.0
100
AcDbLayout
  1
Layout1
 70
     1
 71
     1
 10
0.0
 20
0.0
 11
12.0
 21
9.0
 12
0.0
 22
0.0
 32
0.0
 14
1.000000000000000E+20
 24
1.000000000000000E+20
 34
1.000000000000000E+20
 15
-1.000000000000000E+20
 25
-1.000000000000000E+20
 35
-1.000000000000000E+20
146
0.0
 13
0.0
 23
0.0
 33
0.0
 16
1.0
 26
0.0
 36
0.0
 17
0.0
 27
1.0
 37
0.0
 76
     0
330
1B
  0
LAYOUT
  5
26
102
{ACAD_REACTORS
330
1A
102
}
330
1A
100
AcDbPlotSettings
  1

  2
none_device
  4

  6

 40
0.0
 41
0.0
 42
0.0
 43
0.0
 44
0.0
 45
0.0
 46
0.0
 47
0.0
 48
0.0
 49
0.0
140
0.0
141
0.0
142
1.0
143
1.0
 70
   688
 72
     0
 73
     0
 74
     5
  7

 75
    16
 76
     0
 77
     2
 78
   300
147
1.0
148
0.0
149
0.0
100
AcDbLayout
  1
Layout2
 70
     1
 71
     2
 10
0.0
 20
0.0
 11
0.0
 21
0.0
 12
0.0
 22
0.0
 32
0.0
 14
0.0
 24
0.0
 34
0.0
 15
0.0
 25
0.0
 35
0.0
146
0.0
 13
0.0
 23
0.0
 33
0.0
 16
1.0
 26
0.0
 36
0.0
 17
0.0
 27
1.0
 37
0.0
 76
     0
330
23
  0
LAYOUT
  5
22
102
{ACAD_REACTORS
330
1A
102
}
330
1A
100
AcDbPlotSettings
  1

  2
none_device
  4

  6

 40
0.0
 41
0.0
 42
0.0
 43
0.0
 44
0.0
 45
0.0
 46
0.0
 47
0.0
 48
0.0
 49
0.0
140
0.0
141
0.0
142
1.0
143
1.0
 70
  1712
 72
     0
 73
     0
 74
     0
  7

 75
     0
 76
     0
 77
     2
 78
   300
147
1.0
148
0.0
149
0.0
100
AcDbLayout
  1
Model
 70
     1
 71
     0
 10
0.0
 20
0.0
 11
12.0
 21
9.0
 12
0.0
 22
0.0
 32
0.0
 14
1.000000000000000E+20
 24
1.000000000000000E+20
 34
1.000000000000000E+20
 15
-1.000000000000000E+20
 25
-1.000000000000000E+20
 35
-1.000000000000000E+20
146
0.0
 13
0.0
 23
0.0
 33
0.0
 16
1.0
 26
0.0
 36
0.0
 17
0.0
 27
1.0
 37
0.0
 76
     0
330
1F
331
29
  0
MLINESTYLE
  5
18
102
{ACAD_REACTORS
330
17
102
}
330
17
100
AcDbMlineStyle
  2
Standard
 70
     0
  3

 62
   256
 51
90.0
 52
90.0
 71
     2
 49
0.5
 62
   256
  6
BYLAYER
 49
-0.5
 62
   256
  6
BYLAYER
  0
ACDBPLACEHOLDER
  5
F
102
{ACAD_REACTORS
330
E
102
}
330
E
  0
VISUALSTYLE
  5
2F
102
{ACAD_REACTORS
330
2A
102
}
330
2A
100
AcDbVisualStyle
  2
2dWireframe
 70
     4
 71
     0
 72
     2
 73
     0
 90
        0
 40
-0.6
 41
-30.0
 62
     5
 63
     7
421
 16777215
 74
     1
 91
        4
 64
     7
 65
   257
 75
     1
175
     1
 42
1.0
 92
        0
 66
   257
 43
1.0
 76
     1
 77
     6
 78
     2
 67
     7
 79
     5
170
     0
171
     0
290
     0
174
     0
 93
        1
 44
0.0
173
     0
291
     0
 45
0.0
1001
ACAD
1000
AcDbSavedByObjectVersion
1070
     0
  0
VISUALSTYLE
  5
31
102
{ACAD_REACTORS
330
2A
102
}
330
2A
100
AcDbVisualStyle
  2
3D Hidden
 70
     6
 71
     1
 72
     2
 73
     2
 90
        0
 40
-0.6
 41
-30.0
 62
     5
 63
     7
421
 16777215
 74
     2
 91
        2
 64
     7
 65
   257
 75
     2
175
     1
 42
40.0
 92
        0
 66
   257
 43
1.0
 76
     1
 77
     6
 78
     2
 67
     7
 79
     3
170
     0
171
     0
290
     0
174
     0
 93
        1
 44
0.0
173
     0
291
     0
 45
0.0
1001
ACAD
1000
AcDbSavedByObjectVersion
1070
     0
  0
VISUALSTYLE
  5
30
102
{ACAD_REACTORS
330
2A
102
}
330
2A
100
AcDbVisualStyle
  2
3dWireframe
 70
     5
 71
     0
 72
     2
 73
     0
 90
        0
 40
-0.6
 41
-30.0
 62
     5
 63
     7
421
 16777215
 74
     1
 91
        4
 64
     7
 65
   257
 75
     1
175
     1
 42
1.0
 92
        0
 66
   257
 43
1.0
 76
     1
 77
     6
 78
     2
 67
     7
 79
     5
170
     0
171
     0
290
     0
174
     0
 93
        1
 44
0.0
173
     0
291
     0
 45
0.0
1001
ACAD
1000
AcDbSavedByObjectVersion
1070
     0
  0
VISUALSTYLE
  5
32
102
{ACAD_REACTORS
330
2A
102
}
330
2A
100
AcDbVisualStyle
  2
Basic
 70
     7
 71
     1
 72
     0
 73
     1
 90
        0
 40
-0.6
 41
-30.0
 62
     5
 63
     7
421
 16777215
 74
     0
 91
        4
 64
     7
 65
   257
 75
     1
175
     1
 42
1.0
 92
        8
 66
     7
 43
1.0
 76
     1
 77
     6
 78
     2
 67
     7
 79
     5
170
     0
171
     0
290
     0
174
     0
 93
        1
 44
0.0
173
     0
291
     1
 45
0.0
1001
ACAD
1000
AcDbSavedByObjectVersion
1070
     0
  0
VISUALSTYLE
  5
36
102
{ACAD_REACTORS
330
2A
102
}
330
2A
100
AcDbVisualStyle
  2
Brighten
 70
    12
 71
     2
 72
     2
 73
     0
 90
        0
 40
-0.6
 41
-30.0
 62
     5
 63
     7
421
 16777215
 74
     1
 91
        4
 64
     7
 65
   257
 75
     1
175
     1
 42
1.0
 92
        8
 66
     7
 43
1.0
 76
     1
 77
     6
 78
     2
 67
     7
 79
     5
170
     0
171
     0
290
     0
174
     0
 93
        1
 44
50.0
173
     0
291
     1
 45
0.0
1001
ACAD
1000
AcDbSavedByObjectVersion
1070
     0
  0
VISUALSTYLE
  5
3A
102
{ACAD_REACTORS
330
2A
102
}
330
2A
100
AcDbVisualStyle
  2
ColorChange
 70
    16
 71
     2
 72
     2
 73
     3
 90
        0
 40
-0.6
 41
-30.0
 62
     5
 63
     8
421
  8421504
 74
     1
 91
        4
 64
     7
 65
   257
 75
     1
175
     1
 42
1.0
 92
        8
 66
     8
424
  8421504
 43
1.0
 76
     1
 77
     6
 78
     2
 67
     7
 79
     5
170
     0
171
     0
290
     0
174
     0
 93
        1
 44
0.0
173
     0
291
     1
 45
0.0
1001
ACAD
1000
AcDbSavedByObjectVersion
1070
     0
  0
VISUALSTYLE
  5
34
102
{ACAD_REACTORS
330
2A
102
}
330
2A
100
AcDbVisualStyle
  2
Conceptual
 70
     9
 71
     3
 72
     2
 73
     0
 90
        0
 40
-0.6
 41
-30.0
 62
     5
 63
     7
421
 16777215
 74
     2
 91
        2
 64
     7
 65
   257
 75
     1
175
     1
 42
40.0
 92
        8
 66
     7
 43
1.0
 76
     1
 77
     6
 78
     2
 67
     7
 79
     3
170
     0
171
     0
290
     0
174
     0
 93
        1
 44
0.0
173
     0
291
     0
 45
0.0
1001
ACAD
1000
AcDbSavedByObjectVersion
1070
     0
  0
VISUALSTYLE
  5
35
102
{ACAD_REACTORS
330
2A
102
}
330
2A
100
AcDbVisualStyle
  2
Dim
 70
    11
 71
     2
 72
     2
 73
     0
 90
        0
 40
-0.6
 41
-30.0
 62
     5
 63
     7
421
 16777215
 74
     1
 91
        4
 64
     7
 65
   257
 75
     1
175
     1
 42
1.0
 92
        8
 66
     7
 43
1.0
 76
     1
 77
     6
 78
     2
 67
     7
 79
     5
170
     0
171
     0
290
     0
174
     0
 93
        1
 44
-50.0
173
     0
291
     1
 45
0.0
1001
ACAD
1000
AcDbSavedByObjectVersion
1070
     0
  0
VISUALSTYLE
  5
39
102
{ACAD_REACTORS
330
2A
102
}
330
2A
100
AcDbVisualStyle
  2
Facepattern
 70
    15
 71
     2
 72
     2
 73
     0
 90
        0
 40
-0.6
 41
-30.0
 62
     5
 63
     7
421
 16777215
 74
     1
 91
        4
 64
     7
 65
   257
 75
     1
175
     1
 42
1.0
 92
        8
 66
     7
 43
1.0
 76
     1
 77
     6
 78
     2
 67
     7
 79
     5
170
     0
171
     0
290
     0
174
     0
 93
        1
 44
0.0
173
     0
291
     1
 45
0.0
1001
ACAD
1000
AcDbSavedByObjectVersion
1070
     0
  0
VISUALSTYLE
  5
2B
102
{ACAD_REACTORS
330
2A
102
}
330
2A
100
AcDbVisualStyle
  2
Flat
 70
     0
 71
     2
 72
     1
 73
     1
 90
        2
 40
-0.6
 41
30.0
 62
     5
 63
     7
421
 16777215
 74
     0
 91
        4
 64
     7
 65
   257
 75
     1
175
     1
 42
1.0
 92
        8
 66
     7
 43
1.0
 76
     1
 77
     6
 78
     2
 67
     7
 79
     5
170
     0
171
     0
290
     0
174
     0
 93
       13
 44
0.0
173
     0
291
     1
 45
0.0
1001
ACAD
1000
AcDbSavedByObjectVersion
1070
     0
  0
VISUALSTYLE
  5
2C
102
{ACAD_REACTORS
330
2A
102
}
330
2A
100
AcDbVisualStyle
  2
FlatWithEdges
 70
     1
 71
     2
 72
     1
 73
     1
 90
        2
 40
-0.6
 41
30.0
 62
     5
 63
     7
421
 16777215
 74
     1
 91
        4
 64
     7
 65
   257
 75
     1
175
     1
 42
1.0
 92
        0
 66
   257
 43
1.0
 76
     1
 77
     6
 78
     2
 67
     7
 79
     5
170
     0
171
     0
290
     0
174
     0
 93
       13
 44
0.0
173
     0
291
     1
 45
0.0
1001
ACAD
1000
AcDbSavedByObjectVersion
1070
     0
  0
VISUALSTYLE
  5
2D
102
{ACAD_REACTORS
330
2A
102
}
330
2A
100
AcDbVisualStyle
  2
Gouraud
 70
     2
 71
     2
 72
     2
 73
     1
 90
        2
 40
-0.6
 41
30.0
 62
     5
 63
     7
421
 16777215
 74
     0
 91
        4
 64
     7
 65
   257
 75
     1
175
     1
 42
1.0
 92
        0
 66
     7
 43
1.0
 76
     1
 77
     6
 78
     2
 67
     7
 79
     5
170
     0
171
     0
290
     0
174
     0
 93
       13
 44
0.0
173
     0
291
     1
 45
0.0
1001
ACAD
1000
AcDbSavedByObjectVersion
1070
     0
  0
VISUALSTYLE
  5
2E
102
{ACAD_REACTORS
330
2A
102
}
330
2A
100
AcDbVisualStyle
  2
GouraudWithEdges
 70
     3
 71
     2
 72
     2
 73
     1
 90
        2
 40
-0.6
 41
30.0
 62
     5
 63
     7
421
 16777215
 74
     1
 91
        4
 64
     7
 65
   257
 75
     1
175
     1
 42
1.0
 92
        0
 66
   257
 43
1.0
 76
     1
 77
     6
 78
     2
 67
     7
 79
     5
170
     0
171
     0
290
     0
174
     0
 93
       13
 44
0.0
173
     0
291
     1
 45
0.0
1001
ACAD
1000
AcDbSavedByObjectVersion
1070
     0
  0
VISUALSTYLE
  5
38
102
{ACAD_REACTORS
330
2A
102
}
330
2A
100
AcDbVisualStyle
  2
Linepattern
 70
    14
 71
     2
 72
     2
 73
     0
 90
        0
 40
-0.6
 41
-30.0
 62
     5
 63
     7
421
 16777215
 74
     1
 91
        4
 64
     7
 65
   257
 75
     7
175
     7
 42
1.0
 92
        8
 66
     7
 43
1.0
 76
     1
 77
     6
 78
     2
 67
     7
 79
     5
170
     0
171
     0
290
     0
174
     0
 93
        1
 44
0.0
173
     0
291
     1
 45
0.0
1001
ACAD
1000
AcDbSavedByObjectVersion
1070
     0
  0
VISUALSTYLE
  5
33
102
{ACAD_REACTORS
330
2A
102
}
330
2A
100
AcDbVisualStyle
  2
Realistic
 70
     8
 71
     2
 72
     2
 73
     0
 90
        0
 40
-0.6
 41
-30.0
 62
     5
 63
     7
421
 16777215
 74
     1
 91
        0
 64
     7
 65
   257
 75
     1
175
     1
 42
1.0
 92
        8
 66
     8
424
  7895160
 43
1.0
 76
     1
 77
     6
 78
     2
 67
     7
 79
     5
170
     0
171
     0
290
     0
174
     0
 93
       13
 44
0.0
173
     0
291
     0
 45
0.0
1001
ACAD
1000
AcDbSavedByObjectVersion
1070
     0
  0
VISUALSTYLE
  5
37
102
{ACAD_REACTORS
330
2A
102
}
330
2A
100
AcDbVisualStyle
  2
Thicken
 70
    13
 71
     2
 72
     2
 73
     0
 90
        0
 40
-0.6
 41
-30.0
 62
     5
 63
     7
421
 16777215
 74
     1
 91
        4
 64
     7
 65
   257
 75
     1
175
     1
 42
1.0
 92
       12
 66
     7
 43
1.0
 76
     1
 77
     6
 78
     2
 67
     7
 79
     5
170
     0
171
     0
290
     0
174
     0
 93
        1
 44
0.0
173
     0
291
     1
 45
0.0
1001
ACAD
1000
AcDbSavedByObjectVersion
1070
     0
  0
ENDSEC
  0
EOF
